<svg xmlns="http://www.w3.org/2000/svg" viewBox="0 0 1364 137.97"><defs><style>.cls-1{isolation:isolate;}.cls-2{fill:#8f8e8e;}.cls-3,.cls-30{fill:#fff;}.cls-3{stroke:#000;stroke-miterlimit:10;}.cls-4{fill:#601400;}.cls-15,.cls-5{opacity:0.52;}.cls-12,.cls-15,.cls-17,.cls-18,.cls-21,.cls-34,.cls-37,.cls-38,.cls-42,.cls-47,.cls-48,.cls-5,.cls-52,.cls-53,.cls-8{mix-blend-mode:multiply;}.cls-6,.cls-8,.cls-9{fill:#fad06e;}.cls-7{fill:#bc8b2a;}.cls-19,.cls-20,.cls-36,.cls-43,.cls-9{mix-blend-mode:screen;}.cls-10,.cls-12,.cls-17,.cls-20,.cls-37{fill:#6f380b;}.cls-11{fill:#2e1502;}.cls-12{opacity:0.54;}.cls-13{fill:#df7907;}.cls-14{fill:none;}.cls-15,.cls-16,.cls-19{fill:#360d00;}.cls-17{opacity:0.63;}.cls-18{opacity:0.59;}.cls-21{opacity:0.64;}.cls-22{fill:#fff4c5;}.cls-23{fill:#fad191;}.cls-24{fill:#e09b42;}.cls-25{fill:#4c0000;}.cls-26{fill:#fff0b9;}.cls-27{fill:#753807;}.cls-28{fill:#221004;}.cls-29{fill:#020000;}.cls-31{fill:#ffd300;}.cls-32,.cls-34{fill:#c75d00;}.cls-33{fill:#723003;}.cls-35,.cls-36{fill:#fdbb1b;}.cls-37{opacity:0.67;}.cls-39{fill:#dba945;}.cls-40{fill:#968776;}.cls-41,.cls-42{fill:#e1cdbd;}.cls-43,.cls-44{fill:#e2d5c0;}.cls-45{fill:#000027;}.cls-46{fill:#0073b6;}.cls-47,.cls-48{fill:#007cac;}.cls-48,.cls-53{opacity:0.5;}.cls-49{fill:#253f58;}.cls-50{fill:#dca385;}.cls-51,.cls-52{fill:#858075;}.cls-53{fill:#004572;}</style></defs><g class="cls-1"><g id="Layer_2" data-name="Layer 2"><g id="Layer_1-2" data-name="Layer 1"><rect class="cls-2" x="79.13" width="1284.87" height="111.26"/><circle class="cls-3" cx="68.97" cy="69" r="68.47"/><path class="cls-4" d="M80.86,85.34c-.18-4.62,1.2-25.94,4.17-28.29,1.8.41,4.09,2.09,6.37,4.32.35,4.43-1.54,11.35-3.6,17.25a84.16,84.16,0,0,1-4.72,11.21S81,90,80.86,85.34Z"/><path d="M83.06,89.9a1.51,1.51,0,0,1-1-.43c-.54-.49-1.2-1.6-1.3-4.13C80.62,81.16,81.9,59.43,85,57h.07c1.67.37,3.88,1.87,6.4,4.33a.08.08,0,0,1,0,0c.37,4.69-1.75,12-3.6,17.28a86.23,86.23,0,0,1-4.72,11.23.09.09,0,0,1-.07,0Zm2-32.76c-2.85,2.37-4.31,23.31-4.12,28.2.1,2.46.73,3.54,1.25,4a1.36,1.36,0,0,0,.86.4,86,86,0,0,0,4.68-11.16c1.85-5.27,4-12.52,3.6-17.19C88.85,59,86.68,57.51,85.05,57.14Z"/><g class="cls-5"><path class="cls-4" d="M82.91,88a3.56,3.56,0,0,0,.55-2.64s-.06-.12-.12-.09c-.68.33-1,1-1.63,1.49a4.28,4.28,0,0,1-.66.37,10.42,10.42,0,0,1-.19-1.77c-.18-4.62,1.2-25.94,4.17-28.29,1.8.41,4.09,2.09,6.37,4.32.35,4.43-1.54,11.35-3.6,17.25a84.16,84.16,0,0,1-4.72,11.21,1.45,1.45,0,0,1-1-.49A12.85,12.85,0,0,0,82.91,88Z"/></g><path class="cls-4" d="M55.41,85.31c1.2-5.41,4.14-30.87,1.14-34.28-2.22.09-5.27,1.58-8.44,3.72-1.37,5.17-.62,13.73.55,21.14a100.35,100.35,0,0,0,3.16,14.25S54.21,90.73,55.41,85.31Z"/><path d="M52,90.23a1.12,1.12,0,0,1-.22,0,.06.06,0,0,1-.06,0A101.8,101.8,0,0,1,48.59,75.9c-1.05-6.64-2-15.71-.55-21.17a.05.05,0,0,1,0,0C51.57,52.33,54.5,51,56.54,51a.06.06,0,0,1,.06,0c3.12,3.53,0,29.45-1.12,34.35l-.07,0,.07,0c-.65,3-1.67,4.12-2.41,4.58A2,2,0,0,1,52,90.23Zm-.15-.16A1.68,1.68,0,0,0,53,89.78c.71-.45,1.69-1.58,2.34-4.48,1.27-5.73,4-30.8,1.17-34.2-2,.1-4.89,1.38-8.34,3.7-1.42,5.44-.48,14.46.56,21.08A103.32,103.32,0,0,0,51.88,90.07Z"/><g class="cls-5"><path class="cls-4" d="M52.42,88a4.33,4.33,0,0,1-.08-3.24s.1-.13.15-.09c.74.54,1,1.47,1.61,2.11a5.61,5.61,0,0,0,.7.59,14,14,0,0,0,.61-2.06c1.2-5.41,4.14-30.87,1.14-34.28-2.22.09-5.27,1.58-8.44,3.72-1.37,5.17-.62,13.73.55,21.14a100.35,100.35,0,0,0,3.16,14.25,1.79,1.79,0,0,0,1.32-.36A15.06,15.06,0,0,1,52.42,88Z"/></g><path class="cls-6" d="M60.77,52.87a19.42,19.42,0,0,0-13,14.21c-2.54,11.26,7.84,22.28,17.92,24.17s17.51-4.43,21.18-10.74,4.34-15.16-.56-21.75C86.33,58.76,77.5,47.93,60.77,52.87Z"/><path class="cls-7" d="M69.25,91.66a19.29,19.29,0,0,1-3.56-.34A24.24,24.24,0,0,1,50.63,80.91a18,18,0,0,1-2.92-13.85,19.41,19.41,0,0,1,13-14.25l0,.06,0-.07c8.67-2.56,15.17-.82,19.11,1.09a20.89,20.89,0,0,1,6.53,4.82c5.14,6.93,4,16,.57,21.84C83.68,86.19,77.46,91.66,69.25,91.66Zm0-40A29.58,29.58,0,0,0,60.8,53h0A19.28,19.28,0,0,0,47.86,67.1a17.85,17.85,0,0,0,2.89,13.72,24.06,24.06,0,0,0,15,10.35,18.9,18.9,0,0,0,3.53.34c8.15,0,14.32-5.43,17.58-11,3.4-5.83,4.54-14.8-.56-21.67A20.7,20.7,0,0,0,79.79,54,24,24,0,0,0,69.25,51.67Z"/><path class="cls-8" d="M57.87,57.2a5.78,5.78,0,0,0,4-1c.08-.08.14,0,.15.11.23,1.17,1.45,1.09,2.37.83a9.41,9.41,0,0,0,2.65-1.28.09.09,0,0,1,.12,0,2.35,2.35,0,0,0,2.46.52,5.46,5.46,0,0,0,2.06-1.5c.11-.13.27.16.26.25a1.47,1.47,0,0,0,.23,1.17,1.53,1.53,0,0,0,.92.46,2.77,2.77,0,0,0,2.16-.59c.13-.1.29.18.29.28a2.39,2.39,0,0,0,1,2.29,6.49,6.49,0,0,0,2.17.55,5.25,5.25,0,0,1,2,.56c.42.27.49.81.87,1.1a6.31,6.31,0,0,0,1.58.84,9.84,9.84,0,0,0,3.58.52,15.3,15.3,0,0,0,1.53-.11,16.74,16.74,0,0,0-2-3.41S77.5,47.93,60.77,52.87a19.36,19.36,0,0,0-6.15,3.29A6.22,6.22,0,0,0,57.87,57.2Z"/><path class="cls-9" d="M76.38,58.77a2.26,2.26,0,0,0-1.24.32A1.61,1.61,0,0,0,74.77,58c-.72-.86-2.08-.67-3-.27a4.17,4.17,0,0,0-1,.66A1.47,1.47,0,0,0,70.06,57a2.4,2.4,0,0,0-2.77.61,6.2,6.2,0,0,0-.83,1,2,2,0,0,0-1.76-1.73,2.74,2.74,0,0,0-2.29,1,1.52,1.52,0,0,0-1-1.36c-1.47-.45-2.7.92-3.08,2.19a2.23,2.23,0,0,0,0,1.55c.44,1,1.74,1.17,2.72,1A4.63,4.63,0,0,0,62,61a3.17,3.17,0,0,0-.34.39,3.6,3.6,0,0,0-.82,1.74c-.11,1.19,1.2,1.73,2.19,1.47a3.49,3.49,0,0,0,.84-.36,7.92,7.92,0,0,0-.61.82,6.89,6.89,0,0,0-.55,1,2.35,2.35,0,0,0-.29,1.16,1.43,1.43,0,0,0,1,1.23,2.17,2.17,0,0,0,1.76-.17,4.73,4.73,0,0,0,1.36-1.2,4.77,4.77,0,0,0-.31,2.47,2.31,2.31,0,0,0,1.46,1.81,2.72,2.72,0,0,0,2.54-.89,4.75,4.75,0,0,0,1.29-2.15,4.53,4.53,0,0,0,.18-1.37,2.34,2.34,0,0,0,2,.66A3.32,3.32,0,0,0,76.26,65a4.78,4.78,0,0,0,.08-1.07,1.38,1.38,0,0,0,.59.2,1.78,1.78,0,0,0,1.72-1.38C79.14,61.14,78.23,58.85,76.38,58.77Z"/><path class="cls-8" d="M89.56,66.44a5.09,5.09,0,0,1-.9,2.53,7.53,7.53,0,0,1-1,1.14,4.77,4.77,0,0,1-1.26.88,1.34,1.34,0,0,1-1.14.08L85.06,71a3.28,3.28,0,0,1,0,1.36A2,2,0,0,1,83,73.94a2.18,2.18,0,0,1-1.73-1.57,2.69,2.69,0,0,1-.56,1.18,4.25,4.25,0,0,1-3.44,1.53,2.44,2.44,0,0,1-1.57-.61,2.14,2.14,0,0,1-.58-1,3,3,0,0,1-.73,1.08,2.49,2.49,0,0,1-2.62.54,2.3,2.3,0,0,1-1.27-2,5.71,5.71,0,0,1-1.62,1.8,3.23,3.23,0,0,1-2.45.72,2.61,2.61,0,0,1-1.83-1.7,4.08,4.08,0,0,1,0-2.22,2.71,2.71,0,0,1-1.73.64,2.26,2.26,0,0,1-1.79-1A5.79,5.79,0,0,1,60.3,68a3.23,3.23,0,0,1-1.08,1.41,1.31,1.31,0,0,1-1.21.18,1.7,1.7,0,0,1-.89-.9,3.12,3.12,0,0,1,.16-2.73,4.13,4.13,0,0,1-2.61.6,3.76,3.76,0,0,1-2.57-1.41,5.64,5.64,0,0,1-1-3.54,7.55,7.55,0,0,1,.54-2.48,18.89,18.89,0,0,0-3.84,8c-2.54,11.26,7.84,22.28,17.92,24.17s17.51-4.43,21.18-10.74A21.46,21.46,0,0,0,89.56,66.44Z"/><path class="cls-8" d="M87,75.73a2.14,2.14,0,0,1-1.5,1.83,2.73,2.73,0,0,1-2.36-.32,3.12,3.12,0,0,1,.18,1.6,2.4,2.4,0,0,1-1.82,2,2.16,2.16,0,0,1-2.17-1.29,2,2,0,0,1-.41,1,2.71,2.71,0,0,1-2.45.89,2.66,2.66,0,0,1-1.88-1.1,2.86,2.86,0,0,1-.35,1.67,2.94,2.94,0,0,1-3.06,1.2,3.48,3.48,0,0,1-2.6-2.08,3.11,3.11,0,0,1-.85,1,3.05,3.05,0,0,1-2.49.67,1.53,1.53,0,0,1-1.08-1,2.36,2.36,0,0,1-.93,1.35,2.45,2.45,0,0,1-3.54-1.48,5.66,5.66,0,0,1,.08-3,12.79,12.79,0,0,1,.79-2.17,5.5,5.5,0,0,1-1.67.71,3.67,3.67,0,0,1-3.31-.65,3.12,3.12,0,0,1-.66-3.15,6.55,6.55,0,0,1-2.64,1.72,6.77,6.77,0,0,1-4.22.09c2.28,8,10,14.6,17.64,16,10.07,1.88,17.51-4.43,21.18-10.74a21,21,0,0,0,1.7-3.69A3.5,3.5,0,0,1,87,75.73Z"/><path class="cls-10" d="M86.84,60.69a22.23,22.23,0,0,1,1,3.56,5,5,0,0,1,0,2.75,1.24,1.24,0,0,1-.61.7,1.33,1.33,0,0,1-.59.12,3.07,3.07,0,0,1,.41.47,3,3,0,0,1,.69,2,1.23,1.23,0,0,1-1.08,1.07,3.47,3.47,0,0,1,1,2.38,29.93,29.93,0,0,1,.26,3.42c0,.49,0,1,0,1.46,2.78-6.11,2.9-13.92-1.53-19.88,0,0-.15-.19-.45-.5Q86.41,59.46,86.84,60.69Z"/><path class="cls-11" d="M87.86,78.72h0s-.06,0-.06-.07c0-.56.06-1,.06-1.46a31.79,31.79,0,0,0-.26-3.42,3.5,3.5,0,0,0-1-2.32.07.07,0,0,1,0-.08.06.06,0,0,1,.06,0,1.18,1.18,0,0,0,1-1,2.88,2.88,0,0,0-.67-2,4.4,4.4,0,0,0-.4-.46.06.06,0,0,1,0-.08.08.08,0,0,1,.07-.05h0a1.22,1.22,0,0,0,.56-.11,1.15,1.15,0,0,0,.57-.66,5,5,0,0,0,0-2.7,23,23,0,0,0-1-3.55h0c-.31-.87-.63-1.66-1-2.43a.08.08,0,0,1,0-.09.06.06,0,0,1,.09,0c.3.31.45.49.46.5,4.86,6.54,4,14.6,1.54,20A.08.08,0,0,1,87.86,78.72Zm-1-7.3a3.87,3.87,0,0,1,.89,2.33A31.78,31.78,0,0,1,88,77.18q0,.48,0,1c2.29-5.32,3-13.09-1.69-19.43h0l-.15-.17c.27.64.53,1.32.8,2h0a23.12,23.12,0,0,1,1,3.57,5.18,5.18,0,0,1,0,2.79,1.33,1.33,0,0,1-.65.74,1.24,1.24,0,0,1-.45.11q.17.18.3.36a3,3,0,0,1,.7,2.08A1.26,1.26,0,0,1,86.84,71.42Z"/><path class="cls-12" d="M89.1,75.16a6.77,6.77,0,0,1-.36-.88,9.53,9.53,0,0,1-.18-3.53c0-.35.07-.7.1-1a7.59,7.59,0,0,0,0-1.26,8.77,8.77,0,0,1,0-2.4,3.11,3.11,0,0,1,.55-1.32,17.34,17.34,0,0,0-2.86-6s-.15-.19-.45-.5q.53,1.2,1,2.43a22.23,22.23,0,0,1,1,3.56,5,5,0,0,1,0,2.75,1.24,1.24,0,0,1-.61.7,1.33,1.33,0,0,1-.59.12,3.07,3.07,0,0,1,.41.47,3,3,0,0,1,.69,2,1.23,1.23,0,0,1-1.08,1.07,3.47,3.47,0,0,1,1,2.38,29.93,29.93,0,0,1,.26,3.42c0,.49,0,1,0,1.46A21.79,21.79,0,0,0,89.1,75.16Z"/><path class="cls-10" d="M55.51,85.34a13.81,13.81,0,0,1-1.79-5,9.63,9.63,0,0,1,.46-4.55,3.94,3.94,0,0,1-2.41-1.08c-.91-1.07-.36-2.59.25-3.66a13.39,13.39,0,0,1,2.3-3,7.73,7.73,0,0,1-2.91,1A3.06,3.06,0,0,1,50,68.89,2.15,2.15,0,0,1,49,68,3.7,3.7,0,0,1,49,65.18a12.1,12.1,0,0,1,1.35-2.92A15.28,15.28,0,0,1,52.08,60c.79-.87,1.62-1.7,2.48-2.49a40.78,40.78,0,0,1,5.6-4.38,19.31,19.31,0,0,0-12.37,14c-1.77,7.85,2.73,15.57,9,20.17A15,15,0,0,1,55.51,85.34Z"/><path class="cls-11" d="M56.82,87.33h0c-7.1-5.2-10.66-13.15-9.06-20.26A19.47,19.47,0,0,1,60.13,53a.08.08,0,0,1,.07.14,42.73,42.73,0,0,0-5.59,4.37c-.91.85-1.72,1.66-2.47,2.49a14.24,14.24,0,0,0-1.78,2.3A12,12,0,0,0,49,65.2,3.49,3.49,0,0,0,49.1,68a2.11,2.11,0,0,0,.93.85A2.78,2.78,0,0,0,51.4,69,7.27,7.27,0,0,0,54.28,68a.08.08,0,0,1,.09.12,14.11,14.11,0,0,0-2.29,2.93c-.59,1.07-1.12,2.55-.25,3.58a3.86,3.86,0,0,0,2.36,1,.1.1,0,0,1,.05,0,.07.07,0,0,1,0,.06,9.45,9.45,0,0,0-.45,4.52,13.78,13.78,0,0,0,1.77,5h0a15.86,15.86,0,0,0,1.31,1.91.08.08,0,0,1,0,.1Zm2.73-33.94A19.23,19.23,0,0,0,47.86,67.1c-1.56,6.9,1.8,14.61,8.56,19.77a16.58,16.58,0,0,1-1-1.49h0a13.92,13.92,0,0,1-1.79-5,9.63,9.63,0,0,1,.43-4.5,3.91,3.91,0,0,1-2.36-1.1c-.94-1.09-.39-2.64.23-3.74a13.49,13.49,0,0,1,2-2.63,7.29,7.29,0,0,1-2.52.74A2.92,2.92,0,0,1,50,69a2.27,2.27,0,0,1-1-.91,3.69,3.69,0,0,1-.09-2.89,12.2,12.2,0,0,1,1.35-2.94A15,15,0,0,1,52,59.9c.75-.84,1.57-1.65,2.48-2.5A42.13,42.13,0,0,1,59.55,53.39Z"/><path class="cls-12" d="M53.72,80.33a9.63,9.63,0,0,1,.46-4.55,3.94,3.94,0,0,1-2.41-1.08c-.91-1.07-.36-2.59.25-3.66a13.39,13.39,0,0,1,2.3-3,7.73,7.73,0,0,1-2.91,1A3.06,3.06,0,0,1,50,68.89,2.15,2.15,0,0,1,49,68,3.7,3.7,0,0,1,49,65.18a12.1,12.1,0,0,1,1.35-2.92A15.28,15.28,0,0,1,52.08,60c.79-.87,1.62-1.7,2.48-2.49a40.78,40.78,0,0,1,5.6-4.38,19.31,19.31,0,0,0-12.37,14,16.17,16.17,0,0,0,.12,7.55A13.58,13.58,0,0,1,48,73.07a4.45,4.45,0,0,1,.66-2.17c.22-.3.75-.72,1.13-.44a1.46,1.46,0,0,1,.37,1c.16,1.37,0,2.77.24,4.12A1.66,1.66,0,0,0,51,76.64a1.41,1.41,0,0,0,1.33-.11c.06,0,.1,0,.11.08A5.08,5.08,0,0,1,52.49,79a17.58,17.58,0,0,0-.09,2.18c0,.69,0,1.39.08,2.08h0a25,25,0,0,0,4.34,4,15,15,0,0,1-1.31-1.91A13.81,13.81,0,0,1,53.72,80.33Z"/><path class="cls-13" d="M81.19,60.72A2.47,2.47,0,0,1,78.89,62a2.46,2.46,0,0,1-2.12-3c0-.12-.14,0-.16.07a1.9,1.9,0,0,1-2.07,1.19,2.53,2.53,0,0,1-2-1.71,4.08,4.08,0,0,1-.26-1.69c0-.1-.13,0-.15,0a4.56,4.56,0,0,1-1.24,1.38,1.61,1.61,0,0,1-1.7.12,2.16,2.16,0,0,1-.62-2.94s0,0,0,0a2.36,2.36,0,0,0,0,2.55,1.6,1.6,0,0,0,1.22.77,2.12,2.12,0,0,0,1.38-.47,4.88,4.88,0,0,0,1-1.16,3.56,3.56,0,0,0,1.16,2.81,2.34,2.34,0,0,0,2.64.19,2.1,2.1,0,0,0,.67-.62,2.66,2.66,0,0,0,.91,2.19,2.47,2.47,0,0,0,2.73.24,2.59,2.59,0,0,0,1.15-1.14C81.39,60.6,81.23,60.64,81.19,60.72Z"/><path class="cls-13" d="M75.69,60.76A1.83,1.83,0,0,1,73.25,62a2.52,2.52,0,0,1-1.36-2.83c0-.1-.09,0-.13,0a9.69,9.69,0,0,1-1.32,1.24A3.27,3.27,0,0,1,69,61.1a1.07,1.07,0,0,1-1.22-.61,2.56,2.56,0,0,1,0-1.5c0-.12-.13,0-.15,0a2.75,2.75,0,0,1-3,1.66,1.86,1.86,0,0,1-1.31-1,1.61,1.61,0,0,1,.09-1.63c.07-.11-.05-.1-.1,0a1.75,1.75,0,0,1-2.25.46,1.8,1.8,0,0,1-.74-2.08s0,0,0,0a1.81,1.81,0,0,0,.86,2.28,1.85,1.85,0,0,0,2-.36,1.86,1.86,0,0,0,.65,2.17,2.49,2.49,0,0,0,2.86-.16,3.57,3.57,0,0,0,.87-.95,2,2,0,0,0,.06,1.25,1.12,1.12,0,0,0,1.22.61,3.25,3.25,0,0,0,1.52-.72,9.11,9.11,0,0,0,1.34-1.22,2.76,2.76,0,0,0,.92,2.49,2.07,2.07,0,0,0,2.47,0,1.9,1.9,0,0,0,.78-1.17C75.89,60.55,75.7,60.68,75.69,60.76Z"/><path class="cls-13" d="M85.8,65.25c0,1-.48,2.35-1.66,2.42A2,2,0,0,1,82.63,67a2.84,2.84,0,0,1-.77-1.7,8.56,8.56,0,0,1,.2-2.42c0-.13-.14,0-.16,0-.51,1.13-1.1,2.45-2.3,3A2,2,0,0,1,76.77,65a4.67,4.67,0,0,1-.16-2c0-.08-.15,0-.15.1a2.27,2.27,0,0,1-1.95,2.07,2,2,0,0,1-2-1.36,1.73,1.73,0,0,1,.06-1.44c.06-.15-.12-.06-.16,0a4.43,4.43,0,0,1-2.57,2.5,2.51,2.51,0,0,1-1.69,0,2.76,2.76,0,0,1-1.27-1.09A1.83,1.83,0,0,1,66.69,62c0-.11-.08-.09-.13,0-.58.68-1.62,1.43-2.56,1-.59-.28-1.18-1.26-.6-1.81h0l0,0c.07-.07,0-.19-.07-.1l0,0h0a2.88,2.88,0,0,1-2.89.77,2.77,2.77,0,0,1-1.91-2.19,2.91,2.91,0,0,1,.22-1.77c0-.06,0,0-.06,0a3,3,0,0,0,.2,3.12,2.84,2.84,0,0,0,3,1.06,3,3,0,0,0,1.24-.6,1.42,1.42,0,0,0,.71,1.64c.92.51,2-.14,2.65-.82a2.38,2.38,0,0,0,1.35,2.65,3.08,3.08,0,0,0,3.44-.74,4.88,4.88,0,0,0,1-1.2,2.23,2.23,0,0,0,.89,2,2.14,2.14,0,0,0,2.79-.35,2.75,2.75,0,0,0,.57-.86c0,1,.21,2.14,1.31,2.51A3,3,0,0,0,80.9,65a8.13,8.13,0,0,0,.91-1.53c-.22,1.29-.33,2.74.62,3.75a2.06,2.06,0,0,0,1.65.72,1.93,1.93,0,0,0,1.38-.86A3.16,3.16,0,0,0,86,65.14C86,65,85.81,65.18,85.8,65.25Z"/><path class="cls-13" d="M82,68.06c-.56,1-1.2,2.08-2.4,2.28s-2-.82-2.35-1.82a4.17,4.17,0,0,1-.23-2c0-.1-.15,0-.17.07a5.52,5.52,0,0,1-2.73,2.6,1.74,1.74,0,0,1-1.76-.14,2.08,2.08,0,0,1-.66-1.2,5.72,5.72,0,0,1-.11-1.75c0-.11-.17,0-.19.1-.36,1.2-1,2.62-2.5,2.67a1.6,1.6,0,0,1-1.37-.69,2.64,2.64,0,0,1-.43-1.37,7,7,0,0,1,.11-1.76c0-.13-.14,0-.17,0-.64,1.19-1.44,2.6-2.93,2.77a2.27,2.27,0,0,1-2.36-2.34A5.55,5.55,0,0,1,62.37,63c0-.08,0-.11-.09-.07-.88.46-1.53,1.26-2.38,1.77a2,2,0,0,1-1.39.3,1.66,1.66,0,0,1-1.17-1,1.52,1.52,0,0,1,.24-1.52l.31-.29s.08-.19,0-.12l0,0h0a2,2,0,0,0-.37.35,2.38,2.38,0,0,1-1.27.69,1.18,1.18,0,0,1-1.31-.7s-.09,0-.08.07a1.21,1.21,0,0,0,1.32.77,2.15,2.15,0,0,0,1.15-.54,1.71,1.71,0,0,0-.21.73A1.65,1.65,0,0,0,57.82,65c1,.67,2.07,0,2.86-.65a12,12,0,0,1,1.45-1.1c-.56,1.3-.92,2.87,0,4.09a2,2,0,0,0,1.68.82,3,3,0,0,0,1.87-.82A6.8,6.8,0,0,0,67,65.56a4,4,0,0,0,.4,2.85c.79,1.11,2.31.76,3.13-.11a4.22,4.22,0,0,0,.89-1.53,3.13,3.13,0,0,0,.82,2.51c1.09.88,2.62-.13,3.47-.89a6,6,0,0,0,1.16-1.45A4.13,4.13,0,0,0,78,70a1.85,1.85,0,0,0,1.51.52,2.71,2.71,0,0,0,1.48-.76,6.79,6.79,0,0,0,1.2-1.7C82.22,68,82.07,68,82,68.06Z"/><path class="cls-13" d="M86.83,69.51c-.22.23-.71.13-1,0a.63.63,0,0,1-.5-.74c0-.06,0-.09-.09-.07s-.12.1-.14.16a.55.55,0,0,0,0,.17,1.73,1.73,0,0,1-.37.9,1,1,0,0,1-1.26,0,2.65,2.65,0,0,1-1.24-2.21s-.06,0-.06.05a2.48,2.48,0,0,0,.28,1.46,2.29,2.29,0,0,0,1.11,1,1.15,1.15,0,0,0,1.26-.26,1.61,1.61,0,0,0,.38-.64,1.24,1.24,0,0,0,1.73.16C87.05,69.48,86.94,69.38,86.83,69.51Z"/><path class="cls-13" d="M64.47,69.71c-.51.77-1.27,1.91-2.37,1.56s-1.44-1.74-1.52-2.71a5.23,5.23,0,0,1,.24-2l0-.08c0-.13-.16,0-.19,0v0h0c-.31,1-.78,2.28-1.95,2.56a1.61,1.61,0,0,1-1.38-.25,2.13,2.13,0,0,1-.57-1.67,6.16,6.16,0,0,1,.39-2.25c.05-.12-.09,0-.12,0a2.1,2.1,0,0,1-1.84,1.14,2.27,2.27,0,0,1-1.9-1s-.1,0-.08.08a2.19,2.19,0,0,0,2.07,1.12,2.31,2.31,0,0,0,1.62-.92,6.19,6.19,0,0,0-.31,1.81A2.47,2.47,0,0,0,57.11,69a1.67,1.67,0,0,0,1.46.34A2.36,2.36,0,0,0,60,68.39a4.3,4.3,0,0,0,.45-.74,4.82,4.82,0,0,0,.41,2.71,2.06,2.06,0,0,0,1.12,1.11,1.59,1.59,0,0,0,1.44-.28,4.28,4.28,0,0,0,1.22-1.45C64.68,69.6,64.54,69.62,64.47,69.71Z"/><path class="cls-13" d="M87.39,72.07a1,1,0,0,1-1.1,1,1.07,1.07,0,0,1-.86-1.11c0-.08-.14,0-.14.08a3,3,0,0,1-.8,1.75,1.58,1.58,0,0,1-2.69-.67,4.18,4.18,0,0,1-.22-1.57c0-.08-.11,0-.12.06a7,7,0,0,1-.75,2,2.34,2.34,0,0,1-1.49,1.08,2.62,2.62,0,0,1-2.68-1.93,8.9,8.9,0,0,1-.4-2.35c0-.09-.13,0-.14.08a3,3,0,0,1-2.14,2.46A2.77,2.77,0,0,1,71,71.13,4.67,4.67,0,0,1,70.64,69c0-.09-.13,0-.14.06a5.36,5.36,0,0,1-2.32,2.32,1.46,1.46,0,0,1-2.32-1.23,4.67,4.67,0,0,1,.2-2.07c0-.06-.06,0-.07,0a4.71,4.71,0,0,0-.27,2.07,1.91,1.91,0,0,0,.67,1.4c1,.69,2.35-.28,3.06-1a5.66,5.66,0,0,0,1-1.35,3.86,3.86,0,0,0,1.58,3.39,2.56,2.56,0,0,0,1.79.36,2.62,2.62,0,0,0,1.41-.89A4.28,4.28,0,0,0,76,70.75c.12,1.32.32,2.74,1.43,3.6a2.13,2.13,0,0,0,1.73.44,2.66,2.66,0,0,0,1.49-1A4.72,4.72,0,0,0,81.49,72a6.51,6.51,0,0,0,.15,1,2,2,0,0,0,.64,1.14,1.81,1.81,0,0,0,2.49-.49,3,3,0,0,0,.56-1.18,1.12,1.12,0,0,0,1.12.82A1.23,1.23,0,0,0,87.55,72C87.54,71.87,87.39,72,87.39,72.07Z"/><path class="cls-13" d="M75.83,73.43c-.53,1-1.17,2-2.37,2.2a1.7,1.7,0,0,1-1.39-.37,2.21,2.21,0,0,1-.66-1.08,3,3,0,0,1-.12-1.55c0-.09-.1,0-.11,0a7.46,7.46,0,0,1-.93,1.71,3.71,3.71,0,0,1-1.54,1.17,2.64,2.64,0,0,1-3.27-.88,2,2,0,0,1-.22-1.82c.06-.15-.13-.06-.16,0a3,3,0,0,1-2.69,1.72A2.34,2.34,0,0,1,60.9,74a2.72,2.72,0,0,1-.73-1.3,5.25,5.25,0,0,1-.1-1.77c0-.12-.16,0-.18.07-.46,1-1.76,2.29-3,1.63s-1-2.27-.77-3.4c0-.09-.1,0-.13,0a3,3,0,0,1-1,1,1.36,1.36,0,0,1-1.35,0s-.11.07-.08.09a1.4,1.4,0,0,0,1.41,0,3.14,3.14,0,0,0,.92-.86,3.36,3.36,0,0,0,.38,3A1.52,1.52,0,0,0,57.6,73a2.52,2.52,0,0,0,1.4-.62,3.78,3.78,0,0,0,.86-1,3.55,3.55,0,0,0,.87,2.81,2.63,2.63,0,0,0,3.21.13,3.84,3.84,0,0,0,1-1,2.39,2.39,0,0,0,1.49,2.5,3.49,3.49,0,0,0,3.75-1.15,5.24,5.24,0,0,0,1-1.62,4.38,4.38,0,0,0,.08,1.14,2.42,2.42,0,0,0,.68,1.23,2.2,2.2,0,0,0,2.94-.35,5.1,5.1,0,0,0,1.08-1.63C76,73.31,75.85,73.38,75.83,73.43Z"/><path class="cls-13" d="M84.83,77.33a2.5,2.5,0,0,1-2.54.29,2.47,2.47,0,0,1-1.4-2c0-.1-.15,0-.15.09a3,3,0,0,1-2.24,2.64,1.86,1.86,0,0,1-1.57-.43,1.55,1.55,0,0,1-.51-1.48c0-.13-.13,0-.15.06a3.09,3.09,0,0,1-2.61,2.41,1.9,1.9,0,0,1-1.55-.64,1.68,1.68,0,0,1-.39-1.32,1.42,1.42,0,0,0,0-.22c0-.16-.18,0-.21.08a1.55,1.55,0,0,0,0,.21,2.07,2.07,0,0,1-2.14,1.63,1.76,1.76,0,0,1-1.5-2.12c0-.14-.17,0-.19.05A3.37,3.37,0,0,1,65.56,79a1.79,1.79,0,0,1-1.49-.26,1.88,1.88,0,0,1-.68-1.13,3.38,3.38,0,0,1,.1-1.64c0-.12-.14,0-.16,0a5.3,5.3,0,0,1-1.08,1.41,1.86,1.86,0,0,1-1.59.67c-1.23-.24-1.55-1.6-1.74-2.65,0,0-.07,0-.06,0s0,.28.07.42h0a2,2,0,0,1-2.75-.25,4.53,4.53,0,0,1-.75-3.35s-.07,0-.07,0c-.09,1.23-.16,2.67.79,3.61A2.12,2.12,0,0,0,59,76a3.8,3.8,0,0,0,.5,1.39,1.78,1.78,0,0,0,1.37.85,2.33,2.33,0,0,0,1.52-.8,5.69,5.69,0,0,0,.89-1.07,2.52,2.52,0,0,0,.64,2.48,2.27,2.27,0,0,0,3-.52,4.6,4.6,0,0,0,.75-1.19,2,2,0,0,0,1.09,1.55,2.07,2.07,0,0,0,2.39-.61,2.59,2.59,0,0,0,.43-.61A1.92,1.92,0,0,0,72.81,79a2.69,2.69,0,0,0,2.79-1,4.18,4.18,0,0,0,.66-1.11,1.85,1.85,0,0,0,1.43,1.55,2.56,2.56,0,0,0,2.55-1.16,4.14,4.14,0,0,0,.55-1.21,2.58,2.58,0,0,0,1.41,1.8,2.53,2.53,0,0,0,2.68-.41C85,77.38,85,77.24,84.83,77.33Z"/><path class="cls-13" d="M55.47,73.76s0,0,0,0Z"/><path class="cls-13" d="M65.78,79.85c-.43.9-.93,2.11-2.11,2.14a2,2,0,0,1-1.79-2.06c0-.09-.16,0-.16.1a1,1,0,0,1-.88,1,1.76,1.76,0,0,1-1.42-.49,5.43,5.43,0,0,1-1.61-2.86s-.08,0-.08.08a5.52,5.52,0,0,0,.72,1.92A3.58,3.58,0,0,0,59.7,81a1.56,1.56,0,0,0,1.48.06,1.48,1.48,0,0,0,.59-.6,2.19,2.19,0,0,0,.51,1.1,1.7,1.7,0,0,0,1.43.59c1.18-.12,1.82-1.34,2.19-2.33C66,79.71,65.81,79.79,65.78,79.85Z"/><path class="cls-13" d="M83.81,78.91a2.13,2.13,0,0,1-2.1,1.38,1.31,1.31,0,0,1-.92-.73,2.26,2.26,0,0,1-.17-.52c0-.19,0-.38,0-.57,0,0-.06,0-.06,0a1.06,1.06,0,0,0,0,.19s-.09.09-.09.12a2.82,2.82,0,0,1-.57,1.58,3.53,3.53,0,0,1-1.4,1.17,1.55,1.55,0,0,1-1.66-.41,2.4,2.4,0,0,1-.94-1.49c0-.1-.15,0-.16.1a3.51,3.51,0,0,1-.36,1.43,1.17,1.17,0,0,1-1.13.63,2.06,2.06,0,0,1-1.7-1.69h0c0-.09-.13,0-.14.05-.27.7-.82,1.67-1.67,1.75a1.5,1.5,0,0,1-1.51-1.43c0-.06,0-.11,0-.17s-.18,0-.19.09v0h0a1.94,1.94,0,0,1-.51,1.35,1,1,0,0,1-1.31,0,2.34,2.34,0,0,1-1-2.07s-.08,0-.08.05A2.27,2.27,0,0,0,67.4,82.2a1.16,1.16,0,0,0,1.25-.41,1.76,1.76,0,0,0,.39-.74,1.56,1.56,0,0,0,1.62,1.06,2,2,0,0,0,1.08-.72,3.45,3.45,0,0,0,.66-1.08,2,2,0,0,0,2,1.69c.9-.13,1.23-1,1.37-1.82a2.64,2.64,0,0,0,.6.89,2.28,2.28,0,0,0,1.32.8,2,2,0,0,0,1.38-.52,4.4,4.4,0,0,0,1-1.08,3,3,0,0,0,.42-1,1.86,1.86,0,0,0,.19.53,1.31,1.31,0,0,0,1.09.69A2.45,2.45,0,0,0,84,78.89C84,78.76,83.85,78.84,83.81,78.91Z"/><path class="cls-13" d="M70.05,83a2.53,2.53,0,0,1-2.46,2,2.67,2.67,0,0,1-2.32-1.51.76.76,0,0,0-.11-.36s-.1,0-.08.07a1.07,1.07,0,0,1-.42,1.24,1.62,1.62,0,0,1-1.47,0,3.18,3.18,0,0,1-1.74-1.82.72.72,0,0,0-.09-.27c0-.07-.18.08-.16.14a2,2,0,0,0,.08.22.77.77,0,0,1-.66.78,1.67,1.67,0,0,1-1.33-.65A5.46,5.46,0,0,1,57.7,80.2s-.08,0-.08.07a4.08,4.08,0,0,0,.71,1.8,5.07,5.07,0,0,0,1.23,1.42,1.2,1.2,0,0,0,1.43.1,1.11,1.11,0,0,0,.41-.5,3.05,3.05,0,0,0,2.16,1.75,1.48,1.48,0,0,0,1.37-.44,1.26,1.26,0,0,0,.33-.72,2.64,2.64,0,0,0,.54.76,2.72,2.72,0,0,0,1.22.67,2.59,2.59,0,0,0,2.42-.78,2.56,2.56,0,0,0,.7-1.34C70.15,82.92,70.06,83,70.05,83Z"/><path class="cls-13" d="M82.32,82.39a3.56,3.56,0,0,1-2.08,1.19,1.34,1.34,0,0,1-1.44-1c0-.11-.18,0-.18.12a2.12,2.12,0,0,1-1.85,2.14,2,2,0,0,1-2.1-1.64c0-.1-.17,0-.16.1A1.77,1.77,0,0,1,72.41,85a2.83,2.83,0,0,1-2.06-2s-.07,0-.06,0a2.75,2.75,0,0,0,1.64,2,2,2,0,0,0,2.28-.6,1.73,1.73,0,0,0,.41-.75,2.08,2.08,0,0,0,1.55,1.28,2.2,2.2,0,0,0,2.19-1,2.43,2.43,0,0,0,.38-.89,1.53,1.53,0,0,0,1.36.75,3.6,3.6,0,0,0,2.27-1.27C82.45,82.44,82.44,82.28,82.32,82.39Z"/><path class="cls-14" d="M49.13,89.93c-.75-1.46-1.74-3.46-2.71-5.66-.15-.26-.31-.52-.46-.8A40.64,40.64,0,0,0,49.13,89.93Z"/><path class="cls-15" d="M49.13,89.93c.07.12.12.23.18.34A1.93,1.93,0,0,0,49.13,89.93Z"/><path class="cls-16" d="M48.11,54.75C41.8,59,35,65.83,33.59,69.21c0,0-.66,6.59,4.71,15,2.41,3.25,4.05,4.36,4.77,4.22s-2.45-5.24-3-8.49c4.23,7.61,8.32,10.36,9.29,10.5.23,0-2.13-3.38-3.37-6.94,4.49,7.78,5.6,10.14,6.18,10.09s-.32-3.42-.32-3.42a100.35,100.35,0,0,1-3.16-14.25C47.49,68.48,46.74,59.92,48.11,54.75Z"/><path d="M52.12,93.64c-.47,0-1.14-1.18-3.27-5l-2.5-4.39a39.38,39.38,0,0,0,2.51,5c.52.91.6,1.06.55,1.15a.1.1,0,0,1-.08,0c-1-.13-5-2.79-9.11-10.1a31.57,31.57,0,0,0,2,5.11c.78,1.7,1.17,2.6,1,2.89a.17.17,0,0,1-.13.1c-.71.13-2.36-.91-4.84-4.25-5.32-8.31-4.73-15-4.72-15v0C35,65.74,41.93,58.84,48.07,54.69a.06.06,0,0,1,.08,0,.07.07,0,0,1,0,.08c-1.44,5.44-.49,14.48.55,21.11A101.3,101.3,0,0,0,51.9,90.12c.08.3.75,2.93.41,3.42a.25.25,0,0,1-.17.1ZM46,83.39a.08.08,0,0,1,.06,0c1.22,2.11,2.18,3.81,3,5.18,1.94,3.44,2.76,4.88,3.14,4.88h0s0,0,0,0c.24-.33-.13-2.15-.43-3.29A101.8,101.8,0,0,1,48.59,75.9c-1-6.56-2-15.49-.6-21-6.07,4.14-12.86,10.91-14.32,14.3,0,.31-.49,6.81,4.7,14.91,2.43,3.28,4,4.31,4.68,4.19,0,0,0,0,0,0a8.77,8.77,0,0,0-1-2.76A26.83,26.83,0,0,1,40,79.93a.07.07,0,0,1,.05-.09.07.07,0,0,1,.09,0c4.09,7.36,8,10.15,9.14,10.43-.07-.16-.28-.53-.52-1a36.15,36.15,0,0,1-2.85-5.86.1.1,0,0,1,0-.1Z"/><path class="cls-15" d="M47.52,83.54a94.89,94.89,0,0,1,4.8,9.69,14,14,0,0,0-.5-3.09,100.35,100.35,0,0,1-3.16-14.25c-1.17-7.41-1.92-16-.55-21.14C41.8,59,35,65.83,33.59,69.21a18.62,18.62,0,0,0,.65,5.73.71.71,0,0,1,.14-.1.44.44,0,0,1,.46-.09.74.74,0,0,1,.29.4,8.57,8.57,0,0,1,.3,1.16c.11.4.19.82.3,1.22s.25.91.4,1.36a26.76,26.76,0,0,0,1.74,4.22c.3.59.64,1.16.94,1.74a12.6,12.6,0,0,0,2.63,2.76c-.27-.68-1.41-2.42-1.78-3a21.23,21.23,0,0,1-2.57-5A16.69,16.69,0,0,1,36,76.34a4.62,4.62,0,0,1,.32-2.55c.06-.1.13,0,.16,0,.63,1.43,1.18,2.89,1.75,4.34.5,1.29,1,2.58,1.61,3.82s1.25,2.45,1.94,3.63c.17.27.32.56.5.82s.36.46.55.68c-.72-1.76-2.38-4.93-2.79-7.2l.54.94A18.8,18.8,0,0,1,39,75c-.2-5.41,1.91-2.5,2.81.9a70.78,70.78,0,0,0,5.53,13.33,5.61,5.61,0,0,0,2,1.16s0,0,0-.14-.11-.22-.18-.34A40.64,40.64,0,0,1,46,83.47c.15.28.31.54.46.8-1.83-4.11-3.61-8.94-3.71-12.26C42.51,68.2,44.32,77.63,47.52,83.54Z"/><path class="cls-10" d="M49.32,50s-3,.38-9.32,3-7.91,10.17-8.48,12.72-.47,6.59.57,6.87c.37-.47-.19-3.39.37-4.8.19,4.33,1,5.08,1.51,5.08s1.13-6.4,1.13-6.4-.65,5.67,1,6,2.22-5.67,2.22-5.67-.82,4.85.25,5,1.89-2.47,1.89-2.47.5,1.19,1.28-1c.2,1.31,2.1-1.4,2.47-2.68.41.91.94-.82,1.23-1.77.21,1.28,3.46-2.36,4.06-6.7,1.2-.07,3.41-2.28,3.88-5.55Z"/><path class="cls-11" d="M34,73c-.4,0-1.32-.47-1.56-4.73a11.36,11.36,0,0,0-.12,2.63,4.07,4.07,0,0,1-.14,1.79.08.08,0,0,1-.08,0c-.69-.18-.89-1.74-.94-2.65a16.48,16.48,0,0,1,.32-4.31l0-.1c.61-2.75,2.23-10,8.5-12.67a42.22,42.22,0,0,1,9.34-3h0l4.08,1.63a.06.06,0,0,1,0,.08c-.46,3.21-2.61,5.47-3.88,5.61-.53,3.66-3,7-3.88,7a.3.3,0,0,1-.24-.11c-.3,1-.62,1.85-1,1.87a.27.27,0,0,1-.25-.14c-.37,1-1.58,2.91-2.22,2.91h0a.28.28,0,0,1-.26-.18c-.3.79-.59,1.17-.89,1.18h0a.44.44,0,0,1-.35-.21c-.2.57-.94,2.48-1.92,2.36a.43.43,0,0,1-.31-.19,3.91,3.91,0,0,1-.3-2,5.3,5.3,0,0,1-1.22,2.75.81.81,0,0,1-.64.16c-1-.22-1.21-2.08-1.22-3.7C34.65,70.86,34.3,73,34,73Zm-1.51-5.24h0a.09.09,0,0,1,.06.07c.2,4.66,1.15,5,1.43,5s.72-3.16,1-6.11a1.11,1.11,0,0,1,0-.23.07.07,0,0,1,.08-.07.08.08,0,0,1,.06.09s0,.09,0,.14c-.09.88-.47,5.5,1,5.82a.64.64,0,0,0,.52-.13c.73-.55,1.17-2.47,1.4-3.89.08-.84.2-1.53.21-1.6a.08.08,0,0,1,.08-.06.08.08,0,0,1,.07.08c0,.08-.07.76-.21,1.63-.12,1.18-.18,2.66.18,3.13a.29.29,0,0,0,.21.14h.07c1,0,1.73-2.39,1.74-2.42a.07.07,0,0,1,.14,0s.12.27.3.27h0c.14,0,.43-.18.83-1.3a.08.08,0,0,1,.08,0,.07.07,0,0,1,.06.07c0,.18.09.28.19.28h0c.53,0,1.81-1.9,2.13-3a.06.06,0,0,1,.06,0,.07.07,0,0,1,.08,0c0,.08.1.21.18.21h0c.31,0,.74-1.43.9-2a.07.07,0,0,1,.08,0,.09.09,0,0,1,.07.06c0,.2.13.2.17.2.76,0,3.22-3.15,3.73-6.9a.08.08,0,0,1,.08-.07c1.2-.07,3.32-2.26,3.79-5.42l-4-1.6c-.27,0-3.31.51-9.28,3-6.2,2.59-7.81,9.84-8.41,12.57l0,.09c-.57,2.57-.43,6.39.47,6.77a5.28,5.28,0,0,0,.08-1.64,8.83,8.83,0,0,1,.25-3.1A.08.08,0,0,1,32.46,67.72Z"/><path class="cls-17" d="M34.57,70.44a1.15,1.15,0,0,1-.68.44.61.61,0,0,1-.52-.31A3.52,3.52,0,0,1,33,69a11.75,11.75,0,0,0-.41-2.37c-.26.38-.39.85-.62,1.25a2.44,2.44,0,0,1-.73.8c-.06,2,.21,3.78.9,4,.37-.47-.19-3.39.37-4.8.19,4.33,1,5.08,1.51,5.08.2,0,.44-1.16.64-2.5Z"/><path class="cls-17" d="M49.32,50a14.34,14.34,0,0,0-1.56.32,11.08,11.08,0,0,1,1.49,1.14,3.33,3.33,0,0,1,1.15,1.66.78.78,0,0,1-.34.81,1,1,0,0,1-1-.15.64.64,0,0,1-.15-.13,19.91,19.91,0,0,1-.35,2.44,8.11,8.11,0,0,1-.67,2,2.76,2.76,0,0,1-1.1,1.22,1.32,1.32,0,0,1-1.25,0,1.91,1.91,0,0,1-.81-1,10,10,0,0,1-.54-3.39c0-.14,0-.29,0-.43-.06.15-.12.29-.19.43-.44.84-2,2.63-2.9,1.35a2.46,2.46,0,0,1-.38-1.19,7.82,7.82,0,0,1-.88,1.44,2.08,2.08,0,0,1-1.2.88c-.69.13-1.07-.36-1.23-1A6.25,6.25,0,0,1,37,58a2.22,2.22,0,0,1-1.58,1.38c-.48.06-.71-.36-.77-.77a3.43,3.43,0,0,1,0-1,19,19,0,0,0-1,1.79.58.58,0,0,1,0,.14c.08.31.08.63.16.94a.87.87,0,0,0,.6.62,2.27,2.27,0,0,0,2-.48A3.55,3.55,0,0,0,37.77,59c.07-.2.2,0,.17.15a4,4,0,0,0-.11,1.45,1.68,1.68,0,0,0,.5,1,1.8,1.8,0,0,0,1.4.46,2.27,2.27,0,0,0,1.87-1.62c.07-.22.27.09.24.22-.16.62-.24,1.25-.43,1.86A3.56,3.56,0,0,1,40.6,64a1.37,1.37,0,0,1-1.42.35,2,2,0,0,1-1-1.24c-.15-.39-.24-.8-.35-1.2-.24.42-.42.88-.64,1.31a2.8,2.8,0,0,1-1,1.15,1.16,1.16,0,0,1-1.34,0,1.81,1.81,0,0,1-.4-1.29c0-.25,0-.49,0-.74a2.52,2.52,0,0,1-1.09,1.27,2.44,2.44,0,0,1-1.45.24c-.17.63-.29,1.18-.39,1.63a1.36,1.36,0,0,0,2-.18s.21-.12.18,0c-.09.38-.13.87.27,1.07a1.27,1.27,0,0,0,1,0,3.42,3.42,0,0,0,.43-.21l.09-.13a.08.08,0,0,1,.13,0,6,6,0,0,0,1.56-1.84c.07-.12.17,0,.17.07,0,1,.74,2.3,1.92,1.94A2.8,2.8,0,0,0,40.78,65a9.7,9.7,0,0,0,.83-1.64c0-.07.08-.11.14-.06a.25.25,0,0,1,0,.25,13.36,13.36,0,0,0-.44,2.59A12.68,12.68,0,0,1,41,68c-.09.34-.21.86-.54,1.06s-.55-.14-.65-.43a2.16,2.16,0,0,1-.95,1.7c-.05,0-.1,0-.13-.07a5.78,5.78,0,0,1-.45-2.57c-.08.3-.15.6-.24.9a7.09,7.09,0,0,1-.66,1.67c-.17.29-.48.64-.85.44-.61-.33-.71-1.24-.72-1.85a7.13,7.13,0,0,0-.11-2.35,5.72,5.72,0,0,0-.46,2.05A5.88,5.88,0,0,1,35,69.63c.07,1.38.35,2.72,1.14,2.89,1.12.22,1.73-2.33,2-4.08-.15,1.42-.21,3.31.45,3.39,1.07.12,1.89-2.47,1.89-2.47s.5,1.19,1.28-1c.2,1.31,2.1-1.4,2.47-2.68.41.91.94-.82,1.23-1.77.21,1.28,3.46-2.36,4.06-6.7,1.2-.07,3.41-2.28,3.88-5.55Zm-7.79,8.67A6.58,6.58,0,0,1,41,60.61a1.78,1.78,0,0,1-1.06,1,.79.79,0,0,1-.81-.48A3.61,3.61,0,0,1,38.74,60a9.31,9.31,0,0,1-.17-1.57.07.07,0,0,1,0-.05h0s0,0,0,0a.06.06,0,0,1,.09,0,.19.19,0,0,1,.1.13,1.18,1.18,0,0,0,1-.15,1.4,1.4,0,0,0,.6-.53c0-.06.19-.16.18,0a.77.77,0,0,0,.91.7C41.53,58.42,41.53,58.61,41.53,58.67Zm2.69-.9a8.6,8.6,0,0,0,0,2.68,2.37,2.37,0,0,1-.65,1.73c-.3.25-.6,0-.78-.25a4.33,4.33,0,0,1-.48-1.27c0-.18-.07-.36-.1-.55,0-.4,0-.81-.08-1.21,0-.07,0-.2.06-.24s.12,0,.13.08,0,.07,0,.1c.59.47,1.51-.52,1.7-1C44,57.71,44.28,57.62,44.22,57.77Z"/><path class="cls-17" d="M35,67.78a6.08,6.08,0,0,1,.26-1.18l-.22.08c0,.28-.07.82-.09,1.47C35,68,35,67.9,35,67.78Z"/><g class="cls-18"><path d="M38.27,75.55a23.69,23.69,0,0,1-.88-4.16s-.07,0-.07,0a18.23,18.23,0,0,0,.8,4.2,17.54,17.54,0,0,0,1.73,3.94c0,.06.16-.06.13-.11A25.28,25.28,0,0,1,38.27,75.55Z"/><path d="M43.77,78.24a34.3,34.3,0,0,1-1.4-5.38c-.19-1-.33-2.11-.42-3.17,0,0-.07,0-.07,0a33.8,33.8,0,0,0,2.63,10.88,25.22,25.22,0,0,0,1.4,2.86s.13-.06.11-.1A41.1,41.1,0,0,1,43.77,78.24Z"/><path d="M48.94,84.51a38,38,0,0,1-4.63-12.3,36.28,36.28,0,0,1-.51-3.87s-.06,0-.06,0a33.83,33.83,0,0,0,1,6.57A34.87,34.87,0,0,0,47,81.31a30.7,30.7,0,0,0,1.8,3.34C48.82,84.72,49,84.57,48.94,84.51Z"/><path d="M35.53,75.42a30.77,30.77,0,0,1-.82-3.1s-.07,0-.07.05A36.26,36.26,0,0,0,36.1,78a31.31,31.31,0,0,0,2.4,5.15,28.84,28.84,0,0,0,1.79,2.71c0,.05.17-.09.14-.13A42,42,0,0,1,35.53,75.42Z"/></g><path class="cls-11" d="M48.55,55.3c-.52,1.38-.63,2.91-1.46,4.16a3.61,3.61,0,0,1-.71.8.71.71,0,0,1-1,0,3.52,3.52,0,0,1-.9-1.89,7.52,7.52,0,0,1-.11-2.59,5.27,5.27,0,0,0,.25-.86,11.66,11.66,0,0,0,.17-1.77,2,2,0,0,0-.28-1.38c-.06-.06-.21.11-.16.18a2,2,0,0,1,.25,1.22,14,14,0,0,1-.11,1.44,5.35,5.35,0,0,1-1,2.46c-.43.59-1.31,1.64-2.12,1.1-.63-.43-.69-1.43-.72-2.1A8.62,8.62,0,0,1,41.15,53c0-.05-.06,0-.07,0a7.93,7.93,0,0,0-.54,3.09c0,.73,0,1.85.72,2.33s1.68-.33,2.15-.89a5.51,5.51,0,0,0,.83-1.35,7.17,7.17,0,0,0,0,2.17,6,6,0,0,0,.34,1.27.26.26,0,0,0-.13.12,5.76,5.76,0,0,1-.93,2.8.7.7,0,0,1-.28.26.5.5,0,0,1-.42-.12,1.68,1.68,0,0,1-.48-.58,5.21,5.21,0,0,1-.46-1.15h0c0-.12-.06-.25-.08-.37a5.82,5.82,0,0,1,0-1.91s-.07,0-.08.05a5.21,5.21,0,0,0,0,2.42,7.87,7.87,0,0,1-.12,1,4.94,4.94,0,0,1-.31,1,5.46,5.46,0,0,1-.46.86,2,2,0,0,1-.76.82,1.41,1.41,0,0,1-1.64-.58,3.9,3.9,0,0,1-.58-2.05h0c0-.1-.11,0-.12,0-.13.3-.23.6-.37.89a6.48,6.48,0,0,1-.51.84,5.4,5.4,0,0,1-1.4,1.38.93.93,0,0,1-1,.11c-.28-.2-.25-.6-.25-.91a8.21,8.21,0,0,1,.3-2.32c0-.11-.13,0-.14.06a4.32,4.32,0,0,1-.57,1.16c-.11.17-.23.33-.35.49a3.23,3.23,0,0,1-.41.49c-.42.35-.81-.09-.82-.52a9.73,9.73,0,0,1,.15-1.31s0,0,0,0c-.06.29-.12.58-.17.87a1.69,1.69,0,0,0,0,.74.55.55,0,0,0,.84.38,1.92,1.92,0,0,0,.45-.45c.15-.2.29-.39.43-.6a4.78,4.78,0,0,0,.38-.61,8.46,8.46,0,0,0-.15,1.33c0,.48-.12,1.24.47,1.42s1-.26,1.41-.58a5.7,5.7,0,0,0,1.12-1.23,5.19,5.19,0,0,0,.74-1.42A4.11,4.11,0,0,0,38.13,64a1.72,1.72,0,0,0,1.21,1,1.37,1.37,0,0,0,1.33-.59,5.78,5.78,0,0,0,.89-1.54,6.12,6.12,0,0,0,.34-1.29,5.51,5.51,0,0,0,.36.78c.23.37.73.9,1.16.51a3.19,3.19,0,0,0,.86-1.33,7.19,7.19,0,0,0,.39-1.84,2.39,2.39,0,0,0,.52.76.81.81,0,0,0,.86.18,2.25,2.25,0,0,0,.81-.66,5.6,5.6,0,0,0,1.06-1.91c.32-.92.54-1.88.78-2.82C48.72,55.15,48.57,55.25,48.55,55.3Z"/><path class="cls-11" d="M41.22,60.34a2.82,2.82,0,0,1-.95,1.41,1.23,1.23,0,0,1-1.5,0,2.16,2.16,0,0,1-.6-1.54,7.08,7.08,0,0,1,.17-1.89v0s0-.06,0-.07v0a1.39,1.39,0,0,0,.58.06,2.88,2.88,0,0,0,1.56-.94c.07-.07.07-.2,0-.11A2.94,2.94,0,0,1,39,58a1.17,1.17,0,0,1-1.26-.8,3.38,3.38,0,0,1,.49-3.1s0,0,0,0a3.4,3.4,0,0,0-.59,3.34,1.22,1.22,0,0,0,.69.7l0,0v0a.11.11,0,0,0-.07.06,9.84,9.84,0,0,1-1,1.33A5.35,5.35,0,0,1,36,60.68c-.6.34-1.11-.13-1.3-.7a2.91,2.91,0,0,1,.1-1.75,8.78,8.78,0,0,1,.81-1.92c0-.07,0-.05-.06,0a7.65,7.65,0,0,0-.86,1.83,3.33,3.33,0,0,0-.2,1.92c.14.53.56,1.1,1.17,1a2.12,2.12,0,0,0,.77-.44c.23-.2.46-.41.68-.63a7.53,7.53,0,0,0,1.1-1.41A5.82,5.82,0,0,0,38,59.84a3.37,3.37,0,0,0,.27,1.6,1.32,1.32,0,0,0,1.07.76,1.7,1.7,0,0,0,1.2-.49,3.24,3.24,0,0,0,.82-1.41C41.41,60.19,41.25,60.28,41.22,60.34Z"/><path class="cls-19" d="M45.11,86.21c-.52-.8-1.1-1.56-1.65-2.33s-1.08-1.57-1.57-2.39a18.17,18.17,0,0,1-2.14-5.15,16.63,16.63,0,0,1-.38-3.06c0-.06-.09,0-.09.07a11.15,11.15,0,0,0,.89,5.55A23.66,23.66,0,0,0,43,83.8c.63.87,1.27,1.74,2,2.54C45,86.39,45.14,86.25,45.11,86.21Z"/><path class="cls-19" d="M41.47,86c-.46-.7-1-1.37-1.46-2s-1-1.39-1.38-2.11a15.68,15.68,0,0,1-1.9-4.55,14.23,14.23,0,0,1-.33-2.69s-.08,0-.08.06a9.84,9.84,0,0,0,.79,4.9,20.68,20.68,0,0,0,2.5,4.32,25.29,25.29,0,0,0,1.74,2.24S41.5,86,41.47,86Z"/><path class="cls-19" d="M47,84.35A40.53,40.53,0,0,1,43.75,77q-.34-1.08-.6-2.19a10.41,10.41,0,0,1-.32-2.48s0,0,0,0a13.34,13.34,0,0,0,.64,4.2,32.58,32.58,0,0,0,1.33,3.82,53,53,0,0,0,3.78,7.19c.78,1.3,1.6,2.59,2.45,3.84,0,0,.15-.08.12-.12C49.73,89,48.26,86.72,47,84.35Z"/><path class="cls-20" d="M39.87,53.65a.43.43,0,0,0-.46-.06s0,0,0,0l0,0-.18.11A3.12,3.12,0,0,0,38,55.06a2.87,2.87,0,0,0-.27.95c0,.27-.1.77.17,1s.7-.19.92-.37a4,4,0,0,0,.82-.83,2.43,2.43,0,0,0,.46-1.11A1.16,1.16,0,0,0,39.87,53.65Z"/><path class="cls-20" d="M42.62,52.47a.46.46,0,0,0-.46.06h0s0,0,0,0a1.07,1.07,0,0,0-.14.16,3.11,3.11,0,0,0-.79,2.58c0,.26.1.76.41.86s.63-.37.8-.59a4.44,4.44,0,0,0,.57-1,2.41,2.41,0,0,0,.15-1.19C43.06,53.07,42.93,52.61,42.62,52.47Z"/><path class="cls-20" d="M47.15,51.51a.74.74,0,0,0-.75.1h0l-.06.07a1.79,1.79,0,0,0-.23.25,5,5,0,0,0-1.27,2.58,5.18,5.18,0,0,0,0,1.62c.07.43.18,1.25.67,1.41s1-.6,1.3-1a7.07,7.07,0,0,0,.93-1.65A4,4,0,0,0,47.93,53C47.86,52.49,47.66,51.74,47.15,51.51Z"/><path class="cls-20" d="M36.68,56a.37.37,0,0,0-.39-.05h0l0,0-.15.1a2.59,2.59,0,0,0-1,1.13,2.51,2.51,0,0,0-.23.81c0,.23-.09.65.14.8s.6-.16.79-.31a3.52,3.52,0,0,0,.69-.7,2.22,2.22,0,0,0,.4-.95C36.91,56.62,36.91,56.21,36.68,56Z"/><path class="cls-20" d="M36.53,61a.38.38,0,0,0-.4,0h0l0,0a.49.49,0,0,0-.13.12,2.66,2.66,0,0,0-.76,1.29,2.7,2.7,0,0,0-.07.85c0,.22,0,.65.29.76s.56-.27.72-.46a3.75,3.75,0,0,0,.54-.82,2,2,0,0,0,.21-1C36.87,61.54,36.79,61.14,36.53,61Z"/><path class="cls-20" d="M33.55,61a.3.3,0,0,0-.32,0,0,0,0,0,0,0,0l0,0-.09.11a2.14,2.14,0,0,0-.5,1.1,2.23,2.23,0,0,0,0,.68c0,.18.1.52.31.57s.42-.26.53-.42a2.79,2.79,0,0,0,.36-.71,1.63,1.63,0,0,0,.08-.82C33.86,61.4,33.76,61.08,33.55,61Z"/><path class="cls-20" d="M39.74,58.73a.21.21,0,0,0-.23,0h0l0,0-.07.08a1.66,1.66,0,0,0-.37.82,1.69,1.69,0,0,0,0,.5c0,.13.07.38.22.42s.32-.19.4-.31a2.11,2.11,0,0,0,.26-.52,1.16,1.16,0,0,0,.06-.61C40,59,39.9,58.79,39.74,58.73Z"/><path class="cls-16" d="M91.4,61.37c4.53,4.43,9.06,11,9.75,14,0,0-.44,5.51-6.09,11.58-2.46,2.3-4,3-4.54,2.75s2.79-3.94,3.74-6.51c-4.59,5.6-8.36,7.25-9.18,7.22-.18,0,2.26-2.45,3.81-5.19C84,91,82.78,92.71,82.32,92.59s.76-2.76.76-2.76A84.16,84.16,0,0,0,87.8,78.62C89.86,72.72,91.75,65.8,91.4,61.37Z"/><path d="M82.36,92.67H82.3a.18.18,0,0,1-.13-.11C82,92.09,82.9,90,83,89.8a84.19,84.19,0,0,0,4.71-11.21c1.85-5.28,4-12.55,3.6-17.22a.08.08,0,0,1,0-.07.07.07,0,0,1,.09,0c4.41,4.32,9.07,11,9.77,14.06v0S100.71,81,95.11,87c-2.54,2.38-4,3-4.62,2.77a.18.18,0,0,1-.1-.11c-.08-.26.38-1,1.27-2.23A25.85,25.85,0,0,0,94,83.63c-4.42,5.27-8,6.86-8.89,6.86h0a.09.09,0,0,1-.08,0c0-.08,0-.17.63-.88A33.39,33.39,0,0,0,88.33,86c-1,1.21-1.88,2.23-2.58,3.08C83.47,91.82,82.76,92.67,82.36,92.67Zm9.13-31.11c.29,4.7-1.8,11.86-3.62,17.08a86.23,86.23,0,0,1-4.72,11.23,7.16,7.16,0,0,0-.85,2.62s0,0,0,0c.3.07,1.18-1,3.3-3.53.84-1,1.89-2.26,3.2-3.8a.08.08,0,0,1,.1,0,.08.08,0,0,1,0,.1,31.09,31.09,0,0,1-3.2,4.39c-.25.29-.47.55-.56.68a8,8,0,0,0,3-1.48,29.68,29.68,0,0,0,6-5.71.07.07,0,0,1,.09,0,.07.07,0,0,1,0,.09,22.24,22.24,0,0,1-2.55,4.31,7.17,7.17,0,0,0-1.24,2.1c.51.2,2-.4,4.46-2.73,5.44-5.84,6-11.23,6.07-11.51C100.38,72.4,95.84,65.85,91.49,61.56Z"/><path class="cls-15" d="M87.59,85.06a80,80,0,0,0-5.38,7.23,11.54,11.54,0,0,1,.87-2.46A84.16,84.16,0,0,0,87.8,78.62c2.06-5.9,4-12.82,3.6-17.25,4.53,4.43,9.06,11,9.75,14A15.4,15.4,0,0,1,99.76,80l-.09-.1a.4.4,0,0,0-.38-.14A.61.61,0,0,0,99,80a9.41,9.41,0,0,0-.42.91c-.15.31-.28.64-.43,1s-.34.71-.52,1a22.36,22.36,0,0,1-2.06,3.2c-.34.44-.7.86-1,1.29A10.32,10.32,0,0,1,92,89.3c.33-.51,1.52-1.77,1.92-2.22a18.08,18.08,0,0,0,2.84-3.71,14.24,14.24,0,0,0,1.38-2.5,3.9,3.9,0,0,0,.12-2.14c0-.09-.1,0-.14,0-.73,1.07-1.4,2.19-2.08,3.29s-1.21,2-1.89,2.9S92.73,86.74,92,87.61c-.18.2-.35.41-.53.6s-.37.32-.55.47c.85-1.33,2.69-3.68,3.35-5.48l-.57.69a15.94,15.94,0,0,0,2.16-4.55c1-4.41-1.19-2.34-2.44.32a58.86,58.86,0,0,1-6.52,10.11,4.66,4.66,0,0,1-1.81.65s0,0,0-.11l.2-.25a35.35,35.35,0,0,0,3.57-4.83l-.5.6c2.11-3.11,4.29-6.8,4.86-9.51C94,73.23,91.1,80.69,87.59,85.06Z"/><path class="cls-10" d="M91.11,57.29a33.72,33.72,0,0,1,7.2,3.86c4.78,3.1,5,9.51,5,11.68s-.59,5.48-1.48,5.56c-.24-.45.66-2.76.4-4-.8,3.53-1.6,4-2,4s0-5.42,0-5.42-.31,4.75-1.75,4.8-1-5-1-5,0,4.1-.94,4-1.18-2.31-1.18-2.31-.59.91-.9-1c-.36,1-1.51-1.46-1.62-2.56-.47.68-.66-.81-.75-1.63-.36,1-2.48-2.46-2.33-6.11-1-.23-2.46-2.37-2.35-5.13Z"/><path class="cls-11" d="M101.88,78.46a.07.07,0,0,1-.07,0,3.23,3.23,0,0,1,.15-1.49,10.2,10.2,0,0,0,.29-2.08c-.79,3.25-1.57,3.63-2,3.56s-.26-1.64-.18-3.29c-.26,1.28-.72,2.65-1.53,2.68h0a.66.66,0,0,1-.5-.24,4.14,4.14,0,0,1-.59-2.32,2.9,2.9,0,0,1-.53,1.5.42.42,0,0,1-.29.12c-.81-.06-1.15-1.68-1.23-2.21a.38.38,0,0,1-.33.1c-.24,0-.42-.4-.55-1.08a.3.3,0,0,1-.24.1c-.52-.07-1.25-1.81-1.4-2.72a.24.24,0,0,1-.23.07c-.26-.06-.4-.68-.52-1.67a.25.25,0,0,1-.21,0c-.76-.15-2.26-3.22-2.15-6.3-1-.32-2.45-2.49-2.35-5.19a.09.09,0,0,1,.06-.07l3.6-.73h0a35.11,35.11,0,0,1,7.22,3.87c4.75,3.09,5,9.32,5.09,11.67v.08c.08,2.16-.58,5.55-1.56,5.63Zm.4-4.14s.07,0,.08.06a7.63,7.63,0,0,1-.25,2.58,4.59,4.59,0,0,0-.19,1.34c.67-.19,1.47-2.89,1.37-5.46v-.09c-.09-2.32-.33-8.5-5-11.54a36.24,36.24,0,0,0-7.16-3.85l-3.52.72c-.08,2.65,1.32,4.75,2.3,5a.09.09,0,0,1,.06.07c-.14,3.15,1.4,6.09,2,6.21,0,0,.11,0,.16-.13a.08.08,0,0,1,.08,0,.07.07,0,0,1,.06.07c.06.46.2,1.68.44,1.74,0,0,.11,0,.18-.14a.07.07,0,0,1,.13,0c.1.91.89,2.7,1.3,2.75.07,0,.13-.06.18-.2a.07.07,0,0,1,.08,0,.09.09,0,0,1,.07.06c.15,1,.36,1.15.48,1.18s.27-.17.27-.18a.08.08,0,0,1,.08,0s.06,0,.06.06c.08.61.43,2.2,1.12,2.25a.29.29,0,0,0,.18-.08,5.31,5.31,0,0,0,.61-2.54c0-.73.06-1.3.07-1.36a.08.08,0,1,1,.15,0c0,.05,0,.63-.07,1.34,0,1.19.06,2.82.57,3.38a.53.53,0,0,0,.4.19c.55,0,1-.84,1.34-2.37a19.22,19.22,0,0,0,.32-2.23v-.14a.08.08,0,0,1,.08-.07s.08,0,.07.08a1.88,1.88,0,0,1,0,.19c-.18,2.44-.26,5-.06,5.16s1,0,1.89-3.89A.07.07,0,0,1,102.28,74.32Z"/><path class="cls-17" d="M100.17,76.24a.92.92,0,0,0,.48.47.55.55,0,0,0,.48-.18,3,3,0,0,0,.58-1.27,10.32,10.32,0,0,1,.69-1.88,10.3,10.3,0,0,1,.32,1.12,2,2,0,0,0,.49.76c-.25,1.61-.74,3.08-1.33,3.13-.24-.45.66-2.76.4-4-.8,3.53-1.6,4-2,4-.16,0-.18-1-.15-2.15Z"/><path class="cls-17" d="M87.52,58c-.11,2.76,1.37,4.9,2.35,5.13-.15,3.65,2,7.12,2.33,6.11.09.82.28,2.31.75,1.63.11,1.1,1.26,3.61,1.62,2.56.31,1.94.9,1,.9,1s.28,2.25,1.18,2.31c.55,0,.78-1.52.88-2.71,0,1.48.09,3.66,1,3.65.68,0,1.1-1.08,1.36-2.2a5.8,5.8,0,0,1,0-.93,4.9,4.9,0,0,0-.07-1.75,6,6,0,0,0-.44,1.91c-.1.5-.32,1.23-.87,1.41-.33.11-.53-.22-.63-.49a5.56,5.56,0,0,1-.29-1.46c0-.26,0-.52-.07-.78a4.63,4.63,0,0,1-.75,2s-.07.08-.12,0A1.81,1.81,0,0,1,96.15,74c-.12.23-.36.48-.6.26a1.54,1.54,0,0,1-.28-1,9,9,0,0,1,0-1.56,11.44,11.44,0,0,0,0-2.19s0-.16,0-.2.09,0,.11.07a6.88,6.88,0,0,0,.43,1.47,2.33,2.33,0,0,0,1,1.19c.92.48,1.74-.46,1.87-1.3,0-.1.11-.15.15,0a4.85,4.85,0,0,0,1,1.74.07.07,0,0,1,.1,0,.5.5,0,0,1,0,.13,2.75,2.75,0,0,0,.33.23,1,1,0,0,0,.82.15c.36-.11.41-.51.39-.83,0-.12.12,0,.15,0a1.15,1.15,0,0,0,1.23.61,1.08,1.08,0,0,0,.41-.17c0-.38,0-.85-.08-1.39a1.9,1.9,0,0,1-1.86-1.61c0,.2,0,.4-.08.6a1.51,1.51,0,0,1-.52,1,1,1,0,0,1-1.1-.18A2.23,2.23,0,0,1,99.09,70c-.13-.38-.2-.79-.34-1.17-.15.31-.28.63-.46.93a1.7,1.7,0,0,1-1,.87,1.15,1.15,0,0,1-1.11-.5,3,3,0,0,1-.44-1.37c-.06-.53,0-1-.07-1.59,0-.11.21-.33.23-.14a1.88,1.88,0,0,0,1.29,1.61,1.54,1.54,0,0,0,1.22-.17,1.39,1.39,0,0,0,.56-.78,3,3,0,0,0,.12-1.2c0-.11.14-.28.17-.1a2.93,2.93,0,0,0,.83,1.58,1.87,1.87,0,0,0,1.6.69.71.71,0,0,0,.59-.42c.11-.23.16-.5.27-.74a.3.3,0,0,1,.06-.11,14.9,14.9,0,0,0-.57-1.62,2.83,2.83,0,0,1-.14.83c-.11.33-.36.64-.74.52a1.85,1.85,0,0,1-1.09-1.37,5.16,5.16,0,0,1-.15-1.36c-.22.47-.6.82-1.15.6a1.77,1.77,0,0,1-.86-.89,7.83,7.83,0,0,1-.51-1.32,1.94,1.94,0,0,1-.48.92c-1,.91-1.94-.79-2.18-1.54a2.34,2.34,0,0,1-.09-.38c0,.12,0,.23-.08.35a8,8,0,0,1-1,2.7,1.52,1.52,0,0,1-.8.7,1.11,1.11,0,0,1-1-.21,2.24,2.24,0,0,1-.72-1.17,6.63,6.63,0,0,1-.26-1.72,15.62,15.62,0,0,1,.08-2l-.15.09a.83.83,0,0,1-.82,0,.65.65,0,0,1-.16-.72A2.71,2.71,0,0,1,91,58.5a8.28,8.28,0,0,1,1.39-.71,12.85,12.85,0,0,0-1.23-.5Zm8.81,7.37a.64.64,0,0,0,.84-.44c0-.12.13,0,.15,0a1.12,1.12,0,0,0,.42.52,1,1,0,0,0,.75.27s.06-.09.1-.09.06,0,.07,0,0,0,0,0h0v0a7.91,7.91,0,0,1-.37,1.26,3,3,0,0,1-.49.9.66.66,0,0,1-.74.27,1.45,1.45,0,0,1-.71-1,4.94,4.94,0,0,1-.15-1.67S96.25,65.36,96.33,65.38Zm-2-.9c.08.45.69,1.4,1.24,1.1l0-.08c0-.06.07-.09.12,0s0,.15,0,.2c-.12.31-.15.66-.25,1a3.29,3.29,0,0,1-.16.44,3.67,3.67,0,0,1-.58,1c-.19.2-.46.34-.68.09a2,2,0,0,1-.27-1.51,7.05,7.05,0,0,0,.36-2.21C94.11,64.29,94.3,64.4,94.31,64.48Z"/><path class="cls-17" d="M100.17,74a5.74,5.74,0,0,0,0-1l.16.11c0,.23-.06.68-.14,1.22C100.17,74.2,100.17,74.1,100.17,74Z"/><g class="cls-18"><path d="M96.36,79.88a19.51,19.51,0,0,0,1.35-3.28s.05,0,0,.05A14.79,14.79,0,0,1,96.47,80a14.52,14.52,0,0,1-2,3s-.12-.08-.09-.12A20.36,20.36,0,0,0,96.36,79.88Z"/><path d="M91.46,81.27a29.12,29.12,0,0,0,2-4.2c.31-.83.58-1.68.81-2.54,0,0,.06,0,0,0A28.05,28.05,0,0,1,90.5,83.1a23.5,23.5,0,0,1-1.57,2.14s-.11-.06-.08-.1A32.77,32.77,0,0,0,91.46,81.27Z"/><path d="M86.29,85.64a31.74,31.74,0,0,0,5.62-9.4,30.89,30.89,0,0,0,1-3.09s0,0,0,0a27.66,27.66,0,0,1-1.78,5.24,29.45,29.45,0,0,1-2.79,4.88,26.11,26.11,0,0,1-2,2.47C86.35,85.84,86.25,85.69,86.29,85.64Z"/><path d="M98.64,80.18a25.41,25.41,0,0,0,1.13-2.42s0,0,0,.06a31.2,31.2,0,0,1-2,4.39,26,26,0,0,1-2.73,3.87,24.6,24.6,0,0,1-1.87,2s-.13-.09-.09-.13A35.62,35.62,0,0,0,98.64,80.18Z"/></g><path class="cls-11" d="M91,61.75a15.89,15.89,0,0,0,.58,3.63,3.28,3.28,0,0,0,.46.76.6.6,0,0,0,.81.17,2.93,2.93,0,0,0,1-1.42,6.05,6.05,0,0,0,.47-2.1,6.34,6.34,0,0,1-.07-.75,10.41,10.41,0,0,1,.12-1.47,1.64,1.64,0,0,1,.44-1.09c.06,0,.15.12.1.17a1.63,1.63,0,0,0-.38,1,11.7,11.7,0,0,0-.13,1.19A4.58,4.58,0,0,0,94.78,64c.27.55.83,1.54,1.58,1.21.58-.25.78-1.06.9-1.61a7.16,7.16,0,0,0,.11-2.65s0,0,0,0a6.74,6.74,0,0,1,0,2.61c-.12.6-.31,1.51-.94,1.8s-1.33-.51-1.63-1.05a4.43,4.43,0,0,1-.48-1.22A6,6,0,0,1,94,64.87a4.88,4.88,0,0,1-.46,1,.19.19,0,0,1,.08.11A4.93,4.93,0,0,0,94,68.41a.6.6,0,0,0,.19.25.41.41,0,0,0,.37,0,1.44,1.44,0,0,0,.48-.41,4.53,4.53,0,0,0,.54-.87h0a1.78,1.78,0,0,0,.12-.29A4.62,4.62,0,0,0,96,65.5s.06,0,.06,0a4.32,4.32,0,0,1-.39,2,6.85,6.85,0,0,0,0,.79A4.78,4.78,0,0,0,96,70a1.78,1.78,0,0,0,.5.78,1.19,1.19,0,0,0,1.44-.23,3.35,3.35,0,0,0,.78-1.59h0c0-.08.08,0,.09,0a6.76,6.76,0,0,0,.17.78,3.94,3.94,0,0,0,.29.77,4.64,4.64,0,0,0,.94,1.34.76.76,0,0,0,.82.24c.26-.12.3-.45.35-.71a7.08,7.08,0,0,0,.09-1.95c0-.09.11,0,.11.07a3.74,3.74,0,0,0,.29,1c.07.15.14.31.22.46a3,3,0,0,0,.26.46c.29.35.68.05.75-.31a7.88,7.88,0,0,0,.07-1.09s0,0,0,0c0,.25,0,.5,0,.74a1.56,1.56,0,0,1-.08.61.46.46,0,0,1-.74.19,1.32,1.32,0,0,1-.3-.44,5.6,5.6,0,0,1-.27-.55,3.83,3.83,0,0,1-.22-.56,8.27,8.27,0,0,1-.07,1.11c-.06.4-.09,1-.6,1.09s-.82-.36-1.08-.68a5.22,5.22,0,0,1-.73-1.17,4.65,4.65,0,0,1-.4-1.28,3.26,3.26,0,0,1-.49,1.29,1.41,1.41,0,0,1-1.14.64,1.14,1.14,0,0,1-1-.68,5,5,0,0,1-.49-1.4,4.46,4.46,0,0,1-.09-1.1,3.88,3.88,0,0,1-.42.58c-.23.27-.72.63-1,.25a2.62,2.62,0,0,1-.5-1.22,5.9,5.9,0,0,1,0-1.57,1.77,1.77,0,0,1-.55.54.63.63,0,0,1-.72,0,2,2,0,0,1-.57-.66,4.87,4.87,0,0,1-.59-1.73c-.12-.8-.15-1.62-.21-2.43C90.83,61.6,90.94,61.7,91,61.75Z"/><path class="cls-11" d="M96.21,67a2.37,2.37,0,0,0,.57,1.3,1,1,0,0,0,1.24.19,1.8,1.8,0,0,0,.72-1.18,5.58,5.58,0,0,0,.14-1.58v0s0-.05,0-.06v0a1.15,1.15,0,0,1-.48,0,2.48,2.48,0,0,1-1.14-1c-.05-.06,0-.17,0-.08a2.42,2.42,0,0,0,1.07.91,1,1,0,0,0,1.15-.46,2.79,2.79,0,0,0,.06-2.62s0,0,0,0a2.81,2.81,0,0,1,0,2.82,1,1,0,0,1-.67.48,0,0,0,0,1,0,0v0a.1.1,0,0,1,0,.06,7.36,7.36,0,0,0,.6,1.23,4.19,4.19,0,0,0,.86,1.1c.44.37.93.06,1.17-.38a2.4,2.4,0,0,0,.17-1.45,6.55,6.55,0,0,0-.37-1.69c0-.06,0,0,0,0a6.06,6.06,0,0,1,.43,1.62,2.68,2.68,0,0,1-.12,1.61c-.19.41-.62.82-1.1.61a1.6,1.6,0,0,1-.56-.47,5.61,5.61,0,0,1-.47-.62A6.37,6.37,0,0,1,99,65.94a5,5,0,0,1,0,1.1,2.71,2.71,0,0,1-.46,1.27,1.09,1.09,0,0,1-1,.46,1.39,1.39,0,0,1-.91-.57,2.84,2.84,0,0,1-.47-1.29C96.08,66.82,96.2,66.92,96.21,67Z"/><path class="cls-19" d="M89.17,87.6c.55-.57,1.14-1.1,1.7-1.66s1.12-1.13,1.64-1.73A14.93,14.93,0,0,0,95,80.31a13.9,13.9,0,0,0,.76-2.45s.07,0,.07.07a9.41,9.41,0,0,1-1.56,4.42,20.13,20.13,0,0,1-3,3.6c-.64.62-1.3,1.23-2,1.79C89.22,87.77,89.14,87.64,89.17,87.6Z"/><path class="cls-19" d="M92.19,88c.48-.51,1-1,1.5-1.47s1-1,1.45-1.52a13.51,13.51,0,0,0,2.23-3.45A12.29,12.29,0,0,0,98,79.38s.06,0,.06.06a8.08,8.08,0,0,1-1.38,3.9A17.37,17.37,0,0,1,94,86.52c-.57.54-1.14,1.09-1.76,1.58C92.23,88.13,92.16,88,92.19,88Z"/><path class="cls-19" d="M87.93,85.8a33.72,33.72,0,0,0,3.73-5.53c.29-.56.57-1.13.81-1.71a8.72,8.72,0,0,0,.64-2s0,0,0,0A11.13,11.13,0,0,1,92,80a24.81,24.81,0,0,1-1.66,2.93,45.88,45.88,0,0,1-4.16,5.35c-.84.94-1.7,1.87-2.59,2.77,0,0-.11-.08-.08-.11C85,89.19,86.52,87.55,87.93,85.8Z"/><path class="cls-20" d="M98,62.48a2.11,2.11,0,0,0,.21,1,3.56,3.56,0,0,0,.55.8c.15.17.42.55.7.43s.27-.52.28-.75a2.6,2.6,0,0,0-.84-2.08l-.13-.12,0,0h0a.37.37,0,0,0-.39,0C98.06,61.83,98,62.22,98,62.48Z"/><path class="cls-20" d="M95.71,61a2,2,0,0,0,0,1,3.62,3.62,0,0,0,.31.91c.1.21.27.65.57.61s.39-.44.47-.65a2.81,2.81,0,0,0,.13-.82,2.51,2.51,0,0,0-.4-1.41l-.09-.15,0,0h0a.39.39,0,0,0-.37-.12C96,60.38,95.79,60.74,95.71,61Z"/><path class="cls-20" d="M91.8,60a3.33,3.33,0,0,0-.08,1.63,6.11,6.11,0,0,0,.51,1.49c.17.34.44,1.05.93,1s.64-.71.76-1a4.31,4.31,0,0,0,.22-1.33,4.19,4.19,0,0,0-.65-2.31c0-.08-.1-.16-.15-.24a.21.21,0,0,1,0-.06s0,0,0,0a.59.59,0,0,0-.6-.2C92.21,59,91.93,59.55,91.8,60Z"/><path class="cls-20" d="M100.29,64.78a1.74,1.74,0,0,0,.18.84,3.13,3.13,0,0,0,.46.68c.13.15.37.47.6.37s.23-.45.24-.64a2.08,2.08,0,0,0-.06-.7,2.24,2.24,0,0,0-.65-1.07.52.52,0,0,0-.11-.1l0,0h0a.32.32,0,0,0-.33,0A.83.83,0,0,0,100.29,64.78Z"/><path class="cls-20" d="M99.55,68.82a1.75,1.75,0,0,0,0,.85,3,3,0,0,0,.33.76c.1.17.26.53.52.48s.3-.4.35-.58a2.38,2.38,0,0,0,.07-.7,2.26,2.26,0,0,0-.43-1.18l-.09-.12s0,0,0,0h0a.31.31,0,0,0-.32-.07C99.73,68.29,99.6,68.61,99.55,68.82Z"/><path class="cls-20" d="M102,69.1a1.42,1.42,0,0,0-.06.68,2.29,2.29,0,0,0,.19.63c.07.15.17.45.37.43s.29-.28.34-.43a1.69,1.69,0,0,0,.12-.55,1.88,1.88,0,0,0-.24-1l-.06-.1,0,0h0a.23.23,0,0,0-.25-.09C102.22,68.69,102.09,68.93,102,69.1Z"/><path class="cls-20" d="M97.39,66.2a1.06,1.06,0,0,0,0,.5,2.54,2.54,0,0,0,.14.47c0,.11.13.33.28.32s.21-.22.25-.32a1.15,1.15,0,0,0,.08-.41,1.3,1.3,0,0,0-.17-.72l0-.08v0h0a.17.17,0,0,0-.18-.07C97.52,65.9,97.43,66.08,97.39,66.2Z"/><path class="cls-10" d="M113,17.23c-1.29,2.1-6.78,5.25-6.78,5.25a2.65,2.65,0,0,0-1-2.59c.56,1.46-2.83,3.64-8.65,3.72a77,77,0,0,1-7.83-.13,10,10,0,0,0-9.58,5.89c-.78-10.1-16.77-11.67-20-12.28-3.45-.68-9.26-3.19-9.41-5.81-1.12,1.2.45,3.6.45,3.6s-7.81-4.16-9.92-8.06c0,0-.52,8.33,4.48,10.83a8.91,8.91,0,0,1-2.92-1.56S42.09,21,51,20.93a11.9,11.9,0,0,1-4.39.4,3.48,3.48,0,0,0,2.93,1.35,4,4,0,0,1-1.15.5,4.06,4.06,0,0,0,.58.42,5.21,5.21,0,0,0-1.22.74,1.81,1.81,0,0,0,.86.4s-4.16,1.36-5.47,5.17a17.43,17.43,0,0,1,2.71-.5,10.9,10.9,0,0,0-5.51,7.11c1.4-.7,2.4-1.1,2.4-1.1S39,37.33,41.11,42l.5-.6a5.59,5.59,0,0,0,1,2.49,3.08,3.08,0,0,1,.36-1.5c.91,3.67,4.62,10,12.11,10.47l-.54.53s2.21,1.21,3.14,1.07l-.79.34a7.74,7.74,0,0,0,4.67.13c.5.8,4.28.33,5.08-.13,1.07.6,4.6-.66,6.45-2.58,1-.89,1.36-.49,2.41,2S78.15,58.84,82,59c1.53,1.45,9.32.88,14.21-1s6.27-5.14,6.27-5.14a2,2,0,0,1,.08,1.36,5.06,5.06,0,0,0,1.28-3.53l.49,1.69s3-5.79,2-10.84l.73,1.12s.72-4-1.61-6.58l1.53.72a5.34,5.34,0,0,0-2.65-3.62,3.54,3.54,0,0,0,1.92-1c-1,.08-2.73-1.28-2.73-1.28a5.49,5.49,0,0,0,5.14-.57,10.13,10.13,0,0,1-4.42-1.12s6.35,1.93,8.36-3.69A5.86,5.86,0,0,1,109.46,27S114.36,24.34,113,17.23Z"/><path class="cls-11" d="M86.09,59.89c-2,0-3.5-.26-4.12-.81-4.07-.18-5.59-2.52-6.54-4.79-.62-1.47-1-2.28-1.47-2.38-.22,0-.47.07-.82.4-1.86,1.94-5.37,3.18-6.5,2.61a8.61,8.61,0,0,1-2.65.54c-.77,0-2.09.06-2.46-.4a7.9,7.9,0,0,1-4.67-.15.07.07,0,0,1,0-.14l.46-.19a10.51,10.51,0,0,1-2.81-1.08.07.07,0,0,1,0-.06s0,0,0-.06l.42-.42c-7.46-.55-11-6.9-12-10.35a3.53,3.53,0,0,0-.25,1.32.09.09,0,0,1-.06.07.07.07,0,0,1-.08,0,6.17,6.17,0,0,1-1-2.35l-.38.47a.1.1,0,0,1-.07,0,.07.07,0,0,1-.06,0c-1.57-3.5.07-5.49,1-6.3-.43.19-1,.47-1.74.82a.08.08,0,0,1-.08,0,.11.11,0,0,1,0-.08,11.27,11.27,0,0,1,5.2-7,17.44,17.44,0,0,0-2.3.45.06.06,0,0,1-.07,0,.08.08,0,0,1,0-.08c1.12-3.28,4.39-4.77,5.28-5.12a3.25,3.25,0,0,1-.64-.36.05.05,0,0,1,0,0,.11.11,0,0,1,0-.06,5.06,5.06,0,0,1,1.11-.7,5,5,0,0,1-.47-.36s0-.05,0-.07a.11.11,0,0,1,.07-.06,2.7,2.7,0,0,0,.9-.36,3.42,3.42,0,0,1-2.73-1.37.06.06,0,0,1,0-.08.07.07,0,0,1,.07,0,13.28,13.28,0,0,0,4-.25c-2.5,0-5.68-.51-7.55-2.43a4.21,4.21,0,0,1-1.27-2.48.08.08,0,0,1,0-.07.08.08,0,0,1,.09,0,7.33,7.33,0,0,0,2,1.17c-4.09-3-3.68-10.32-3.67-10.39s0-.07.06-.07a.08.08,0,0,1,.08,0c1.86,3.45,8.3,7.15,9.64,7.9-.37-.65-1.24-2.44-.29-3.45a.08.08,0,0,1,.08,0,.08.08,0,0,1,0,.07c.15,2.63,6.07,5.09,9.34,5.74l1.18.19c4.91.79,17.87,2.87,18.83,11.87a10.08,10.08,0,0,1,9.1-5.68h.43c7,.25,7.79.13,7.82.13,4.6-.07,7.58-1.42,8.41-2.65a1.05,1.05,0,0,0,.18-1,.05.05,0,0,1,0-.08.07.07,0,0,1,.09,0,2.67,2.67,0,0,1,1.1,2.51c.84-.5,5.47-3.27,6.63-5.15,0,0,0,0,.08,0a.09.09,0,0,1,.06.06,9.77,9.77,0,0,1-1.26,7.59,7.79,7.79,0,0,1-2,2,5.31,5.31,0,0,0,2.71-1.36.09.09,0,0,1,.1,0,.08.08,0,0,1,0,.09,5.76,5.76,0,0,1-5,4,9.57,9.57,0,0,1-2.78-.1,9.92,9.92,0,0,0,3.76.82.08.08,0,0,1,.07,0,.08.08,0,0,1,0,.08,5.45,5.45,0,0,1-4.76.73,4.6,4.6,0,0,0,2.3,1,.06.06,0,0,1,.07,0,.08.08,0,0,1,0,.08,3.57,3.57,0,0,1-1.78,1,5.38,5.38,0,0,1,2.52,3.57.09.09,0,0,1,0,.07.08.08,0,0,1-.08,0l-1.21-.58c2.06,2.57,1.41,6.34,1.4,6.38s0,.06-.06.06a.07.07,0,0,1-.08,0l-.51-.8c.81,4.93-2.06,10.45-2.09,10.51a.07.07,0,0,1-.07,0,.08.08,0,0,1-.07-.05l-.35-1.22a4.65,4.65,0,0,1-1.29,3.1s-.07,0-.09,0a.08.08,0,0,1,0-.09,1.91,1.91,0,0,0,0-1.15,11.28,11.28,0,0,1-6.23,5A31.63,31.63,0,0,1,86.09,59.89ZM73.86,51.75l.13,0c.5.11.93.91,1.58,2.46.93,2.23,2.42,4.53,6.43,4.7,0,0,0,0,0,0,1.48,1.39,9.27.85,14.14-1s6.2-5.07,6.22-5.1a.08.08,0,0,1,.07,0,.12.12,0,0,1,.07,0A2.21,2.21,0,0,1,102.7,54a5.3,5.3,0,0,0,1.07-3.29s0-.07.06-.07a.07.07,0,0,1,.09.05l.42,1.5c.49-1,2.85-6.13,1.92-10.62a.07.07,0,0,1,0-.08.08.08,0,0,1,.1,0l.61,1c.1-.84.37-4.13-1.62-6.32a.09.09,0,0,1,0-.1.07.07,0,0,1,.09,0l1.4.66a5.4,5.4,0,0,0-2.59-3.42.07.07,0,0,1,0-.08s0-.06.06-.06a3.52,3.52,0,0,0,1.76-.89,6.29,6.29,0,0,1-2.6-1.31.07.07,0,0,1,0-.09.06.06,0,0,1,.09,0,5.53,5.53,0,0,0,4.88-.42,10.36,10.36,0,0,1-4.22-1.13.07.07,0,0,1,0-.1s0-.05.09,0a9.39,9.39,0,0,0,3.39.25,5.5,5.5,0,0,0,4.75-3.59A6.13,6.13,0,0,1,109.47,27a.08.08,0,0,1-.08-.06.09.09,0,0,1,0-.09s4.74-2.63,3.51-9.46c-1.44,2.08-6.49,5-6.71,5.11a.06.06,0,0,1-.08,0,.11.11,0,0,1,0-.08,2.59,2.59,0,0,0-.85-2.38A1.25,1.25,0,0,1,105,21c-.85,1.26-3.88,2.65-8.52,2.72a77.83,77.83,0,0,1-7.83-.13,10,10,0,0,0-9.51,5.84.07.07,0,0,1-.08,0s-.06,0-.07-.07c-.7-9.11-13.79-11.22-18.72-12-.5-.08-.89-.14-1.18-.2-3.24-.63-9-3.05-9.45-5.69-.85,1.18.55,3.34.57,3.37a.08.08,0,0,1,0,.09.07.07,0,0,1-.09,0c-.08,0-7.55-4-9.82-7.85,0,1.43,0,8.3,4.44,10.49a.08.08,0,0,1,0,.1.07.07,0,0,1-.1,0,10.39,10.39,0,0,1-2.78-1.44c.18.89,1.37,4.57,9,4.57H51a.09.09,0,0,1,.07.06A.07.07,0,0,1,51,21a11,11,0,0,1-4.26.43,3.59,3.59,0,0,0,2.77,1.18.09.09,0,0,1,.07.06.08.08,0,0,1,0,.08,4.43,4.43,0,0,1-1,.48c.3.24.44.31.44.32a.06.06,0,0,1,0,.06.08.08,0,0,1,0,.07,5,5,0,0,0-1.12.66,1.68,1.68,0,0,0,.73.34s.07,0,.07.06a.08.08,0,0,1,0,.09s-4,1.35-5.37,5a17.3,17.3,0,0,1,2.58-.47.08.08,0,0,1,.08.06.07.07,0,0,1,0,.08,11,11,0,0,0-5.43,6.91c1.31-.65,2.25-1,2.26-1a.08.08,0,0,1,.1,0,.08.08,0,0,1,0,.1c-.15.07-3.57,1.9-1.62,6.41l.42-.51a.08.08,0,0,1,.08,0,.08.08,0,0,1,0,.07,5.37,5.37,0,0,0,.87,2.25,2.66,2.66,0,0,1,.36-1.3.11.11,0,0,1,.08,0,.09.09,0,0,1,.06.06c.84,3.39,4.43,9.94,12,10.41,0,0,.06,0,.07,0a.08.08,0,0,1,0,.08l-.46.46a7.75,7.75,0,0,0,3,1,.08.08,0,0,1,.09,0,.07.07,0,0,1,0,.09l-.61.26a7.71,7.71,0,0,0,4.44.07.06.06,0,0,1,.08,0c.2.32,1.09.46,2.36.37a7.79,7.79,0,0,0,2.62-.53.11.11,0,0,1,.08,0c1.2.67,4.81-1,6.35-2.57A1.34,1.34,0,0,1,73.86,51.75Z"/><path class="cls-10" d="M113,17.23c-1.29,2.1-6.78,5.25-6.78,5.25a2.65,2.65,0,0,0-1-2.59c.56,1.46-2.83,3.64-8.65,3.72a77,77,0,0,1-7.83-.13,10,10,0,0,0-9.58,5.89c-.78-10.1-16.77-11.67-20-12.28-3.45-.68-9.26-3.19-9.41-5.81-1.12,1.2.45,3.6.45,3.6s-7.81-4.16-9.92-8.06c0,0-.52,8.33,4.48,10.83a8.91,8.91,0,0,1-2.92-1.56S42.09,21,51,20.93a11.9,11.9,0,0,1-4.39.4,3.48,3.48,0,0,0,2.93,1.35,4,4,0,0,1-1.15.5,4.06,4.06,0,0,0,.58.42,5.21,5.21,0,0,0-1.22.74,1.81,1.81,0,0,0,.86.4s-4.16,1.36-5.47,5.17a17.43,17.43,0,0,1,2.71-.5,10.9,10.9,0,0,0-5.51,7.11c1.4-.7,2.4-1.1,2.4-1.1S39,37.33,41.11,42l.5-.6a5.59,5.59,0,0,0,1,2.49,3.08,3.08,0,0,1,.36-1.5c.91,3.67,4.62,10,12.11,10.47l-.54.53s2.21,1.21,3.14,1.07l-.79.34a7.74,7.74,0,0,0,4.67.13c.5.8,4.28.33,5.08-.13,1.07.6,4.6-.66,6.45-2.58,1-.89,1.36-.49,2.41,2S78.15,58.84,82,59c1.53,1.45,9.32.88,14.21-1s6.27-5.14,6.27-5.14a2,2,0,0,1,.08,1.36,5.06,5.06,0,0,0,1.28-3.53l.49,1.69s3-5.79,2-10.84l.73,1.12s.72-4-1.61-6.58l1.53.72a5.34,5.34,0,0,0-2.65-3.62,3.54,3.54,0,0,0,1.92-1c-1,.08-2.73-1.28-2.73-1.28a5.49,5.49,0,0,0,5.14-.57,10.13,10.13,0,0,1-4.42-1.12s6.35,1.93,8.36-3.69A5.86,5.86,0,0,1,109.46,27S114.36,24.34,113,17.23Z"/><path class="cls-11" d="M86.09,59.89c-2,0-3.5-.26-4.12-.81-4.07-.18-5.59-2.52-6.54-4.79-.62-1.47-1-2.28-1.47-2.38-.22,0-.47.07-.82.4-1.86,1.94-5.37,3.18-6.5,2.61a8.61,8.61,0,0,1-2.65.54c-.77,0-2.09.06-2.46-.4a7.9,7.9,0,0,1-4.67-.15.07.07,0,0,1,0-.14l.46-.19a10.51,10.51,0,0,1-2.81-1.08.07.07,0,0,1,0-.06s0,0,0-.06l.42-.42c-7.46-.55-11-6.9-12-10.35a3.53,3.53,0,0,0-.25,1.32.09.09,0,0,1-.06.07.07.07,0,0,1-.08,0,6.17,6.17,0,0,1-1-2.35l-.38.47a.1.1,0,0,1-.07,0,.07.07,0,0,1-.06,0c-1.57-3.5.07-5.49,1-6.3-.43.19-1,.47-1.74.82a.08.08,0,0,1-.08,0,.11.11,0,0,1,0-.08,11.27,11.27,0,0,1,5.2-7,17.44,17.44,0,0,0-2.3.45.06.06,0,0,1-.07,0,.08.08,0,0,1,0-.08c1.12-3.28,4.39-4.77,5.28-5.12a3.25,3.25,0,0,1-.64-.36.05.05,0,0,1,0,0,.11.11,0,0,1,0-.06,5.06,5.06,0,0,1,1.11-.7,5,5,0,0,1-.47-.36s0-.05,0-.07a.11.11,0,0,1,.07-.06,2.7,2.7,0,0,0,.9-.36,3.42,3.42,0,0,1-2.73-1.37.06.06,0,0,1,0-.08.07.07,0,0,1,.07,0,13.28,13.28,0,0,0,4-.25c-2.5,0-5.68-.51-7.55-2.43a4.21,4.21,0,0,1-1.27-2.48.08.08,0,0,1,0-.07.08.08,0,0,1,.09,0,7.33,7.33,0,0,0,2,1.17c-4.09-3-3.68-10.32-3.67-10.39s0-.07.06-.07a.08.08,0,0,1,.08,0c1.86,3.45,8.3,7.15,9.64,7.9-.37-.65-1.24-2.44-.29-3.45a.08.08,0,0,1,.08,0,.08.08,0,0,1,0,.07c.15,2.63,6.07,5.09,9.34,5.74l1.18.19c4.91.79,17.87,2.87,18.83,11.87a10.08,10.08,0,0,1,9.1-5.68h.43c7,.25,7.79.13,7.82.13,4.6-.07,7.58-1.42,8.41-2.65a1.05,1.05,0,0,0,.18-1,.05.05,0,0,1,0-.08.07.07,0,0,1,.09,0,2.67,2.67,0,0,1,1.1,2.51c.84-.5,5.47-3.27,6.63-5.15,0,0,0,0,.08,0a.09.09,0,0,1,.06.06,9.77,9.77,0,0,1-1.26,7.59,7.79,7.79,0,0,1-2,2,5.31,5.31,0,0,0,2.71-1.36.09.09,0,0,1,.1,0,.08.08,0,0,1,0,.09,5.76,5.76,0,0,1-5,4,9.57,9.57,0,0,1-2.78-.1,9.92,9.92,0,0,0,3.76.82.08.08,0,0,1,.07,0,.08.08,0,0,1,0,.08,5.45,5.45,0,0,1-4.76.73,4.6,4.6,0,0,0,2.3,1,.06.06,0,0,1,.07,0,.08.08,0,0,1,0,.08,3.57,3.57,0,0,1-1.78,1,5.38,5.38,0,0,1,2.52,3.57.09.09,0,0,1,0,.07.08.08,0,0,1-.08,0l-1.21-.58c2.06,2.57,1.41,6.34,1.4,6.38s0,.06-.06.06a.07.07,0,0,1-.08,0l-.51-.8c.81,4.93-2.06,10.45-2.09,10.51a.07.07,0,0,1-.07,0,.08.08,0,0,1-.07-.05l-.35-1.22a4.65,4.65,0,0,1-1.29,3.1s-.07,0-.09,0a.08.08,0,0,1,0-.09,1.91,1.91,0,0,0,0-1.15,11.28,11.28,0,0,1-6.23,5A31.63,31.63,0,0,1,86.09,59.89ZM73.86,51.75l.13,0c.5.11.93.91,1.58,2.46.93,2.23,2.42,4.53,6.43,4.7,0,0,0,0,0,0,1.48,1.39,9.27.85,14.14-1s6.2-5.07,6.22-5.1a.08.08,0,0,1,.07,0,.12.12,0,0,1,.07,0A2.21,2.21,0,0,1,102.7,54a5.3,5.3,0,0,0,1.07-3.29s0-.07.06-.07a.07.07,0,0,1,.09.05l.42,1.5c.49-1,2.85-6.13,1.92-10.62a.07.07,0,0,1,0-.08.08.08,0,0,1,.1,0l.61,1c.1-.84.37-4.13-1.62-6.32a.09.09,0,0,1,0-.1.07.07,0,0,1,.09,0l1.4.66a5.4,5.4,0,0,0-2.59-3.42.07.07,0,0,1,0-.08s0-.06.06-.06a3.52,3.52,0,0,0,1.76-.89,6.29,6.29,0,0,1-2.6-1.31.07.07,0,0,1,0-.09.06.06,0,0,1,.09,0,5.53,5.53,0,0,0,4.88-.42,10.36,10.36,0,0,1-4.22-1.13.07.07,0,0,1,0-.1s0-.05.09,0a9.39,9.39,0,0,0,3.39.25,5.5,5.5,0,0,0,4.75-3.59A6.13,6.13,0,0,1,109.47,27a.08.08,0,0,1-.08-.06.09.09,0,0,1,0-.09s4.74-2.63,3.51-9.46c-1.44,2.08-6.49,5-6.71,5.11a.06.06,0,0,1-.08,0,.11.11,0,0,1,0-.08,2.59,2.59,0,0,0-.85-2.38A1.25,1.25,0,0,1,105,21c-.85,1.26-3.88,2.65-8.52,2.72a77.83,77.83,0,0,1-7.83-.13,10,10,0,0,0-9.51,5.84.07.07,0,0,1-.08,0s-.06,0-.07-.07c-.7-9.11-13.79-11.22-18.72-12-.5-.08-.89-.14-1.18-.2-3.24-.63-9-3.05-9.45-5.69-.85,1.18.55,3.34.57,3.37a.08.08,0,0,1,0,.09.07.07,0,0,1-.09,0c-.08,0-7.55-4-9.82-7.85,0,1.43,0,8.3,4.44,10.49a.08.08,0,0,1,0,.1.07.07,0,0,1-.1,0,10.39,10.39,0,0,1-2.78-1.44c.18.89,1.37,4.57,9,4.57H51a.09.09,0,0,1,.07.06A.07.07,0,0,1,51,21a11,11,0,0,1-4.26.43,3.59,3.59,0,0,0,2.77,1.18.09.09,0,0,1,.07.06.08.08,0,0,1,0,.08,4.43,4.43,0,0,1-1,.48c.3.24.44.31.44.32a.06.06,0,0,1,0,.06.08.08,0,0,1,0,.07,5,5,0,0,0-1.12.66,1.68,1.68,0,0,0,.73.34s.07,0,.07.06a.08.08,0,0,1,0,.09s-4,1.35-5.37,5a17.3,17.3,0,0,1,2.58-.47.08.08,0,0,1,.08.06.07.07,0,0,1,0,.08,11,11,0,0,0-5.43,6.91c1.31-.65,2.25-1,2.26-1a.08.08,0,0,1,.1,0,.08.08,0,0,1,0,.1c-.15.07-3.57,1.9-1.62,6.41l.42-.51a.08.08,0,0,1,.08,0,.08.08,0,0,1,0,.07,5.37,5.37,0,0,0,.87,2.25,2.66,2.66,0,0,1,.36-1.3.11.11,0,0,1,.08,0,.09.09,0,0,1,.06.06c.84,3.39,4.43,9.94,12,10.41,0,0,.06,0,.07,0a.08.08,0,0,1,0,.08l-.46.46a7.75,7.75,0,0,0,3,1,.08.08,0,0,1,.09,0,.07.07,0,0,1,0,.09l-.61.26a7.71,7.71,0,0,0,4.44.07.06.06,0,0,1,.08,0c.2.32,1.09.46,2.36.37a7.79,7.79,0,0,0,2.62-.53.11.11,0,0,1,.08,0c1.2.67,4.81-1,6.35-2.57A1.34,1.34,0,0,1,73.86,51.75Z"/><g class="cls-21"><path class="cls-10" d="M113.06,17.68c-2.17,9.29-13.79,8.64-21,8a12.5,12.5,0,0,0-11.93,5.88s.17-2.05,2.61-4.72a6.81,6.81,0,0,0-3.66,3.78A7.15,7.15,0,0,1,79.24,29c-.1.21-.15.34-.15.34,0-.16,0-.33,0-.48a4.91,4.91,0,0,1-.4,1.4,16.65,16.65,0,0,0-1.75-4.42,16.69,16.69,0,0,1,.64,4.91C73.39,17.27,58.69,19.55,50.4,17,43.28,14.82,41,10.24,40.24,7c0,1.1-.14,8.38,4.48,10.69a8.91,8.91,0,0,1-2.92-1.56S42.09,21,51,20.93a11.9,11.9,0,0,1-4.39.4,3.48,3.48,0,0,0,2.93,1.35,4,4,0,0,1-1.15.5,4.06,4.06,0,0,0,.58.42,5.21,5.21,0,0,0-1.22.74,1.81,1.81,0,0,0,.86.4s-4.16,1.36-5.47,5.17a17.43,17.43,0,0,1,2.71-.5,10.9,10.9,0,0,0-5.51,7.11c1.4-.7,2.4-1.1,2.4-1.1S39,37.33,41.11,42l.5-.6a5.59,5.59,0,0,0,1,2.49,3.08,3.08,0,0,1,.36-1.5c.91,3.67,4.62,10,12.11,10.47l-.54.53s2.21,1.21,3.14,1.07l-.79.34a7.74,7.74,0,0,0,4.67.13c.5.8,4.28.33,5.08-.13,1.07.6,4.6-.66,6.45-2.58,1-.89,1.36-.49,2.41,2S78.15,58.84,82,59c1.53,1.45,9.32.88,14.21-1s6.27-5.14,6.27-5.14a2,2,0,0,1,.08,1.36,5.06,5.06,0,0,0,1.28-3.53l.49,1.69s3-5.79,2-10.84l.73,1.12s.72-4-1.61-6.58l1.53.72a5.34,5.34,0,0,0-2.65-3.62,3.54,3.54,0,0,0,1.92-1c-1,.08-2.73-1.28-2.73-1.28a5.49,5.49,0,0,0,5.14-.57,10.13,10.13,0,0,1-4.42-1.12s6.35,1.93,8.36-3.69A5.86,5.86,0,0,1,109.46,27S114.14,24.45,113.06,17.68Z"/></g><path class="cls-6" d="M91.94,58.82l-1-.9a5.84,5.84,0,0,0,4,.21l-.75-.41c7.84-.83,8.8-9.42,8.8-9.42a4.75,4.75,0,0,1-.07,2.4,9.94,9.94,0,0,0,1.72-7.9,9.72,9.72,0,0,1,.82,2.06c.76-3.37-1.51-7.84-1.51-7.84a3.83,3.83,0,0,1,1.38,1.86c.2-1.65-2-3.37-2-3.37a5.08,5.08,0,0,1,1.51,1,4.55,4.55,0,0,0-1.92-2.82l1,.41a7.48,7.48,0,0,0-4.19-3.71,5.86,5.86,0,0,1,1.85.41c-1.58-2.82-6.67-2.13-6.67-2.13s.21-.41,2-.83a9,9,0,0,0-9.22.35s.07-.41,1.52-1.65c-5.44,1-6,4.54-6,4.54s-.27-.48.35-1.79c-7.09,6-7,15.27-6.47,15A18,18,0,0,0,75.8,55a6.71,6.71,0,0,0,6.29,4c.83.78,3.43,1,6.45.74a2.84,2.84,0,0,1-.73-1.45A5.73,5.73,0,0,0,91.94,58.82Z"/><path class="cls-6" d="M74.63,46.71a1.82,1.82,0,0,1-.85.46c5.3-7.16,2-13.12,2-13.12s.65,1.15,1.35,2.21a16.49,16.49,0,0,0-4.5-11.21,7.57,7.57,0,0,1,0,3.2c-.3-4.66-3.31-6-3.31-6a5.44,5.44,0,0,1-.1,2.41c-.75-4.46-4.3-4.46-4.3-4.46a11.14,11.14,0,0,0,.45,2,5,5,0,0,0-5.31-2.1,12.72,12.72,0,0,0,1,1.55,4.92,4.92,0,0,0-5.61-.6l1.2.8c-4.6-.6-9.31,5.36-9.31,5.36a6.09,6.09,0,0,1,1.91-.1,7.32,7.32,0,0,0-3.91,3.5A9.82,9.82,0,0,1,48,30.1a6.32,6.32,0,0,0-3.15,3.45l1.35-.65A8.13,8.13,0,0,0,43.9,37l.8-.65c-1.8,2.65-.55,6.15-.55,6.15A3.4,3.4,0,0,1,44.7,41a7.57,7.57,0,0,0,1.35,5.45l.25-1c-.2,2.71,2,4.16,2.45,3.81,0,.45.81,1.35.81,1.35l.2-.75a7.76,7.76,0,0,0,1.69,2.37,13,13,0,0,0,3.48.69l-.55.55s2.27,1.24,3.23,1.1l-.82.35a8,8,0,0,0,4.8.13c.52.82,4.4.34,5.22-.14a4.32,4.32,0,0,0,3-.36C75.13,51.6,74.63,46.71,74.63,46.71Z"/><path class="cls-10" d="M79.09,29.37a10,10,0,0,1,9.58-5.89,77,77,0,0,0,7.83.13C93,20.06,85.35,18.36,85.35,18.36s.08-1.37,2-1.37A3.63,3.63,0,0,0,85,16.4c1-.91-1.34-1.82-4.83-1.29a8.35,8.35,0,0,0,1.48-1.06s-1.53-1.1-6.17,1.3a12.29,12.29,0,0,1,1-1.44s-.57-.46-1.89.41-4,1.27-5.47.48a2.45,2.45,0,0,0,.94,1.43,24.17,24.17,0,0,0-11,.86C62.32,17.7,78.31,19.27,79.09,29.37Z"/><path class="cls-11" d="M79.09,29.44h0s-.06,0-.07-.07c-.7-9.11-13.79-11.22-18.72-12-.5-.08-.89-.14-1.18-.2,0,0-.06,0-.06-.07s0-.06.05-.07a25.25,25.25,0,0,1,10.74-.92,2.11,2.11,0,0,1-.75-1.29.08.08,0,0,1,0-.07.06.06,0,0,1,.08,0c1.4.77,4.1.37,5.39-.49s2-.42,2-.4a.08.08,0,0,1,0,.05.07.07,0,0,1,0,.06s-.46.54-.89,1.19c4.44-2.22,5.94-1.2,6-1.16a.09.09,0,0,1,0,.06s0,0,0,.06A6.9,6.9,0,0,1,80.5,15c2.06-.25,4.36,0,4.75.79a.5.5,0,0,1-.09.55,3.58,3.58,0,0,1,2.26.61.08.08,0,0,1,0,.08.08.08,0,0,1-.07,0c-1.63,0-1.89,1-1.93,1.24.76.18,7.84,1.9,11.12,5.26a.09.09,0,0,1,0,.07s0,.05,0,.05-.79.14-7.85-.12a10,10,0,0,0-9.51,5.84A.07.07,0,0,1,79.09,29.44ZM59.45,17.07l.86.14c4.91.79,17.87,2.87,18.83,11.87a10.08,10.08,0,0,1,9.1-5.68h.43c5.59.2,7.22.17,7.66.14-3.47-3.42-10.92-5.1-11-5.12a.08.08,0,0,1-.06-.08s.1-1.32,1.85-1.43A4.11,4.11,0,0,0,85,16.47h0a.07.07,0,0,1-.07,0,.08.08,0,0,1,0-.09c.19-.17.25-.34.17-.51-.25-.54-2.12-1.07-4.94-.65a.08.08,0,0,1-.09,0,.09.09,0,0,1,0-.09,8.85,8.85,0,0,0,1.39-1,2.85,2.85,0,0,0-1.24-.19,11.49,11.49,0,0,0-4.77,1.53.07.07,0,0,1-.09,0,.08.08,0,0,1,0-.09,15.39,15.39,0,0,1,1-1.38c-.18-.08-.73-.2-1.72.45a6.64,6.64,0,0,1-5.42.56,2.53,2.53,0,0,0,.89,1.23.1.1,0,0,1,0,.09.08.08,0,0,1-.09,0A24.21,24.21,0,0,0,59.45,17.07Z"/><path class="cls-20" d="M72.2,16.83a6.29,6.29,0,0,1-.63-1c0-.1.15-.24.22-.16a5.83,5.83,0,0,0,1.26.94,5.56,5.56,0,0,0,1.35.58c0-.49-.15-1-.12-1.47,0-.09.14-.35.2-.16s.24.76.57.87.78-.22,1.07-.37c1.06-.55,2.15-1,3.23-1.51.14-.06.17.23.12.3a6,6,0,0,0-.54,1.64c1.37-.22,2.68-.75,4.07-.84.12,0,.28.26.18.35a4.5,4.5,0,0,0-1.07,1.27c.57-.16,1.14-.33,1.72-.47a11,11,0,0,1,2.61-.26A4.88,4.88,0,0,0,85,16.4c1-.91-1.34-1.82-4.83-1.29a8.35,8.35,0,0,0,1.48-1.06s-1.53-1.1-6.17,1.3a12.29,12.29,0,0,1,1-1.44s-.57-.46-1.89.41-4,1.27-5.47.48a1.3,1.3,0,0,0,.08.34A9.21,9.21,0,0,0,72.2,16.83Z"/><path class="cls-22" d="M91.57,58.85l-1-.87a5.67,5.67,0,0,0,3.87.2l-.73-.4c7.62-.8,8.55-9.16,8.55-9.16A4.6,4.6,0,0,1,102.2,51a9.69,9.69,0,0,0,1.67-7.69,9.69,9.69,0,0,1,.8,2c.73-3.28-1.47-7.62-1.47-7.62a3.72,3.72,0,0,1,1.34,1.8c.2-1.6-1.94-3.27-1.94-3.27a5,5,0,0,1,1.47.94,4.44,4.44,0,0,0-1.87-2.75l.93.41a7.27,7.27,0,0,0-4.07-3.61,5.69,5.69,0,0,1,1.8.4c-1.54-2.74-6.48-2.07-6.48-2.07s.2-.41,1.94-.81a8.74,8.74,0,0,0-9,.34s.07-.4,1.47-1.61c-5.28,1-5.82,4.41-5.82,4.41s-.26-.46.34-1.73c-6.89,5.81-6.82,14.83-6.28,14.57a17.39,17.39,0,0,0-1.18,10.44A6.5,6.5,0,0,0,82,59c.8.76,3.34,1,6.27.72a2.79,2.79,0,0,1-.71-1.41A5.56,5.56,0,0,0,91.57,58.85Z"/><ellipse class="cls-23" cx="89.46" cy="44.15" rx="12.35" ry="10.86" transform="translate(16.51 112.2) rotate(-69.28)"/><ellipse class="cls-24" cx="89.46" cy="44.15" rx="10.28" ry="9.04" transform="translate(16.51 112.2) rotate(-69.28)"/><path class="cls-6" d="M90.4,58.62a8.72,8.72,0,0,1-5-1.72,2,2,0,0,0,.89,1.86c-4.91-1-5.72-4.69-5.72-4.69a2.49,2.49,0,0,0,0,3.11c-2.71-.2-2.51-2.61-.49-7.11,1.45-3.25-.84-4.91-2.24-6A3.56,3.56,0,0,1,77,41.52c-.32,2-.18,3.26,0,3.16a17.39,17.39,0,0,0-1.18,10.44A6.5,6.5,0,0,0,82,59c.8.76,3.34,1,6.27.72a2.79,2.79,0,0,1-.71-1.41,5.56,5.56,0,0,0,4,.54l-1-.87a5.73,5.73,0,0,0,3.25.35,30.22,30.22,0,0,1-4.58-1.46C89.19,57.53,90.35,58.64,90.4,58.62Z"/><path class="cls-22" d="M74.25,47a1.75,1.75,0,0,1-.83.43c5.16-7,2-12.76,2-12.76s.63,1.12,1.31,2.15A16.07,16.07,0,0,0,72.3,25.85a7.39,7.39,0,0,1,0,3.12c-.29-4.53-3.21-5.84-3.21-5.84a5.3,5.3,0,0,1-.1,2.34c-.73-4.34-4.19-4.34-4.19-4.34a10.87,10.87,0,0,0,.44,1.95,4.86,4.86,0,0,0-5.17-2,12.24,12.24,0,0,0,1,1.51A4.78,4.78,0,0,0,55.59,22l1.17.78C52.28,22.15,47.7,28,47.7,28a5.73,5.73,0,0,1,1.85-.1,7.15,7.15,0,0,0-3.8,3.41,9.72,9.72,0,0,1,2.59-.49,6.18,6.18,0,0,0-3.07,3.37l1.31-.64a7.94,7.94,0,0,0-2.24,4l.78-.64c-1.75,2.59-.54,6-.54,6a3.32,3.32,0,0,1,.54-1.47,7.39,7.39,0,0,0,1.32,5.31l.24-1c-.2,2.63,1.9,4,2.39,3.7,0,.44.78,1.32.78,1.32l.19-.73a7.85,7.85,0,0,0,1.65,2.31,13.15,13.15,0,0,0,3.39.67l-.54.53s2.21,1.21,3.14,1.07l-.79.34a7.74,7.74,0,0,0,4.67.13c.5.8,4.28.33,5.08-.13a4.22,4.22,0,0,0,3-.36C74.73,51.7,74.25,47,74.25,47Z"/><path class="cls-6" d="M73.42,47.38a14.73,14.73,0,0,0,2.64-5.56A3.67,3.67,0,0,1,74,43.14c-3.11.6-3.61,3.81-3.41,6.42s-.4,3.91-3.51,4.61a3.89,3.89,0,0,0,.61-1.81c-1,1.31-3.91,1.91-8.23,1.71a3.67,3.67,0,0,0,2.68-2,10.56,10.56,0,0,1-5.93.51,4.15,4.15,0,0,0,2-1.49,11.41,11.41,0,0,1-7.16.42c.21.25.42.49.61.69a13.15,13.15,0,0,0,3.39.67l-.54.53s2.21,1.21,3.14,1.07l-.79.34a7.74,7.74,0,0,0,4.67.13c.5.8,4.28.33,5.08-.13a4.22,4.22,0,0,0,3-.36C74.73,51.7,74.25,47,74.25,47A1.75,1.75,0,0,1,73.42,47.38Z"/><ellipse class="cls-25" cx="89.46" cy="44.15" rx="9.28" ry="8.16" transform="translate(16.51 112.2) rotate(-69.28)"/><ellipse class="cls-26" cx="89.29" cy="44.59" rx="8.5" ry="7.48" transform="translate(15.99 112.33) rotate(-69.28)"/><path class="cls-27" d="M95.47,44.44a6.66,6.66,0,1,1-6.66-6.89A6.78,6.78,0,0,1,95.47,44.44Z"/><path class="cls-28" d="M88.81,51.4a7,7,0,1,1,6.74-7A6.86,6.86,0,0,1,88.81,51.4Zm0-13.78a6.82,6.82,0,1,0,6.59,6.82A6.72,6.72,0,0,0,88.81,37.62Z"/><path class="cls-29" d="M93.35,44.44a4.54,4.54,0,1,1-4.54-4.7A4.62,4.62,0,0,1,93.35,44.44Z"/><path class="cls-30" d="M87.92,39.77a1.59,1.59,0,0,0-1.73-.68c-1.65.36-2.59,2.38-2.78,3.89-.11.91.18,2.36,1.24,2.58s1.89-.65,2.43-1.31C88.06,43.07,88.83,41.19,87.92,39.77Z"/><path class="cls-30" d="M86.25,46.27a.67.67,0,0,0-.49-.31.92.92,0,0,0-.93.25,1.21,1.21,0,0,0-.37.57.79.79,0,0,0,.81,1,1.06,1.06,0,0,0,.93-.46A1,1,0,0,0,86.25,46.27Z"/><path class="cls-31" d="M93.28,46.36a1,1,0,0,0-.92-.55,2.48,2.48,0,0,0-2.06,1.68c-.16.45-.17,1.22.42,1.45a1.88,1.88,0,0,0,1.56-.39C93,48.06,93.64,47.18,93.28,46.36Z"/><ellipse class="cls-23" cx="61.23" cy="37.68" rx="12.35" ry="10.86" transform="translate(7.33 85.27) rotate(-73.05)"/><ellipse class="cls-24" cx="61.23" cy="37.68" rx="10.28" ry="9.04" transform="translate(7.33 85.27) rotate(-73.05)"/><path class="cls-25" d="M69,40.06c-1.49,4.9-6.2,7.81-10.51,6.5s-6.59-6.35-5.1-11.25,6.2-7.81,10.51-6.5S70.52,35.16,69,40.06Z"/><path class="cls-26" d="M68.24,40.32c-1.37,4.49-5.68,7.15-9.63,6s-6-5.82-4.67-10.31,5.68-7.16,9.63-6S69.61,35.83,68.24,40.32Z"/><ellipse class="cls-27" cx="60.6" cy="38.01" rx="6.66" ry="6.89" transform="matrix(1, -0.07, 0.07, 1, -2.37, 4.07)"/><path class="cls-28" d="M60.62,45a6.59,6.59,0,0,1-4.45-1.74,7.14,7.14,0,0,1-.65-9.83A6.6,6.6,0,0,1,65,32.79a7,7,0,0,1,2.29,4.78A6.85,6.85,0,0,1,61.06,45Zm0-13.78-.43,0a6.41,6.41,0,0,0-4.51,2.29,7,7,0,0,0,.63,9.62,6.44,6.44,0,0,0,4.78,1.68,6.71,6.71,0,0,0,6.12-7.23,6.86,6.86,0,0,0-2.24-4.68A6.47,6.47,0,0,0,60.58,31.2Z"/><path class="cls-29" d="M65.14,37.72a4.55,4.55,0,1,1-4.85-4.39A4.62,4.62,0,0,1,65.14,37.72Z"/><path class="cls-30" d="M59.41,33.41a1.58,1.58,0,0,0-1.77-.56c-1.63.47-2.44,2.55-2.52,4.07,0,.91.33,2.34,1.4,2.49s1.85-.77,2.35-1.47C59.76,36.7,60.4,34.77,59.41,33.41Z"/><path class="cls-30" d="M58.16,40a.69.69,0,0,0-.5-.28.93.93,0,0,0-.91.32,1.1,1.1,0,0,0-.34.59.89.89,0,0,0,.09.56.87.87,0,0,0,.79.4,1.12,1.12,0,0,0,.9-.52A1,1,0,0,0,58.16,40Z"/><path class="cls-31" d="M65.19,39.64a1,1,0,0,0-1-.49A2.47,2.47,0,0,0,62.29,41c-.14.46-.09,1.23.51,1.42a1.83,1.83,0,0,0,1.53-.49C65,41.35,65.6,40.44,65.19,39.64Z"/><path class="cls-32" d="M73.23,54.55S70.78,51,71.4,47.22s3.58-3.48,4.95-3.08,4.46,1.55,2.89,5.78S74.75,57.11,73.23,54.55Z"/><path class="cls-33" d="M74.39,55.56a1.84,1.84,0,0,1-1.23-1c-.07-.1-2.45-3.68-1.83-7.38A4,4,0,0,1,73,44.34a4.35,4.35,0,0,1,3.4-.27,4.77,4.77,0,0,1,3,2.13,4.6,4.6,0,0,1-.09,3.74c-1.18,3.18-3,5.49-4.54,5.63A1.6,1.6,0,0,1,74.39,55.56Zm1.3-11.5a3.36,3.36,0,0,0-4.21,3.18c-.62,3.68,1.79,7.23,1.81,7.27h0a1.53,1.53,0,0,0,1.47.91c1.44-.13,3.25-2.4,4.41-5.53a4.48,4.48,0,0,0,.09-3.62,4.61,4.61,0,0,0-2.93-2.06A5.17,5.17,0,0,0,75.69,44.06Z"/><path class="cls-34" d="M78.56,45.25A3.58,3.58,0,0,1,78.92,47a5.69,5.69,0,0,1-1.61,3.16c-.42.52-.87,1-1.3,1.54a11.45,11.45,0,0,0-1.16,1.6,3.17,3.17,0,0,0-.45,1.67,2.62,2.62,0,0,0,.09.56c1.55.16,3.55-2.33,4.75-5.57C80.14,47.5,79.51,46.09,78.56,45.25Z"/><path class="cls-35" d="M73.22,53.14a9.62,9.62,0,0,1-1.55-6.2c.54-3.17,3-2.95,4.19-2.61s3.67,1.2.47,4.73C73.78,51.89,74.5,55.3,73.22,53.14Z"/><path class="cls-36" d="M72.37,48.46a6.64,6.64,0,0,1,1.29-3.77,3.27,3.27,0,0,1,.47-.51c-1,.14-2.13.8-2.46,2.76a9.62,9.62,0,0,0,1.55,6.2c.35.59.55.77.71.65A9.88,9.88,0,0,1,72.37,48.46Z"/><path class="cls-33" d="M73.88,46.53c-.07.38-.32.65-.56.61s-.4-.38-.33-.76.31-.66.56-.62S73.94,46.14,73.88,46.53Z"/><path class="cls-33" d="M78.33,47.27c-.07.38-.32.66-.57.62s-.39-.39-.32-.77.31-.66.56-.62S78.39,46.89,78.33,47.27Z"/><path class="cls-37" d="M81.54,24.09a7.75,7.75,0,0,1,4-4.54s-4.54.8-6.14,3.61A9.9,9.9,0,0,0,77,16.87a12.37,12.37,0,0,1,.93,5.75,7.17,7.17,0,0,0-3.74-4.14,2.77,2.77,0,0,1,.94,2.4c-2.74-2.28-7.69-3.83-11.45-4.73a27.27,27.27,0,0,0-4.56.94c3.2.61,19.19,2.18,20,12.28a10,10,0,0,1,9.58-5.89,77,77,0,0,0,7.83.13,11.23,11.23,0,0,0-1.94-1.56C90.05,21.67,84.25,21.9,81.54,24.09Z"/><path class="cls-20" d="M81.8,26.6s2.87-3,8.87-2.08,13,.45,14.67-3.65a16,16,0,0,1-12.58,3.19C87.34,23.34,84.08,23.73,81.8,26.6Z"/><path class="cls-20" d="M51.76,14.64s2.35,1.92,9.19,3.27,11.89,2,15.31,6.91c-3.92-3.42-7.11-5.09-14.57-6.35S52.69,16,51.76,14.64Z"/><path class="cls-8" d="M81.22,72.57c0-.2-.27,0-.3.1a4,4,0,0,1-1.1,1.55,3.06,3.06,0,0,1-1.57,1A3.28,3.28,0,0,1,76.32,75a1.16,1.16,0,0,1-.58-1.42h0a0,0,0,0,0,0,0c0-.07,0-.1-.08-.1s-.13.1-.16.15a1,1,0,0,0-.09.27,3,3,0,0,1-1.82,1.91,2,2,0,0,1-2.28-.88,2.84,2.84,0,0,1,0-2c0-.1-.12,0-.13.06a6,6,0,0,0-.23.83c.06-.4.14-.79.22-1.18,0-.08,0-.12-.12-.1a.27.27,0,0,0-.17.2c-.33,1.5-.61,3.22.36,4.55a2.47,2.47,0,0,0,1.7,1,2.57,2.57,0,0,0,1.92-.55,2.71,2.71,0,0,0,.86-1.3,4.25,4.25,0,0,0,1,1.42,1.9,1.9,0,0,0,1.83.44A3.1,3.1,0,0,0,80,77a7.29,7.29,0,0,0,.94-2A7.2,7.2,0,0,0,81.22,72.57Z"/><path class="cls-8" d="M64.84,72.89c-.07-.08-.22.09-.24.15a4.44,4.44,0,0,1-.24.49,4.78,4.78,0,0,1-.48.36,3.86,3.86,0,0,1-.82.45,2.61,2.61,0,0,1-1.74.1,1.82,1.82,0,0,1-1.23-1.11,3.94,3.94,0,0,1,0-2c0-.19-.22,0-.24.08A2,2,0,0,1,55.89,71a2.14,2.14,0,0,1,.29-1.48s0-.06,0,0h0c.11-.21-.13-.22-.21-.06a4.22,4.22,0,0,0-.53,3.33,2.24,2.24,0,0,0,2.09,1.53,2.14,2.14,0,0,0,1.38-.71A4.39,4.39,0,0,0,59.33,75a1.82,1.82,0,0,0,1.33.92,3.81,3.81,0,0,0,3.1-1.23,4.65,4.65,0,0,0,.8-1.08l0,0C64.78,73.41,65,73.13,64.84,72.89Z"/><g class="cls-38"><path class="cls-39" d="M56.79,83.35h0Z"/><path class="cls-39" d="M52.8,87.26c1.1.38,2.22.7,3.32,1.07,1.34.46,2.65,1,4,1.34q1,.3,2.07.54v0l0-.12a.43.43,0,0,1,0-.11.5.5,0,0,1,0-.12l0-.1a.51.51,0,0,1,0-.13v-.1s0-.09,0-.13v-.09s0-.09,0-.14v-.07a1.49,1.49,0,0,1,0-.21,49.21,49.21,0,0,1,.35-5,9.1,9.1,0,0,0,.3-2.84c0-.33-.22-.68-.61-.6l-.17,0-.05,0-.12.07,0,0-.14.11a.12.12,0,0,0-.05.05l-.08.08a.46.46,0,0,0-.07.07l0,.06a3.18,3.18,0,0,0-.36.6,7.64,7.64,0,0,0-.51,2.27l-.06.52a1,1,0,0,1-.1.17l0,.07h0l-.15-.09A2,2,0,0,1,60,84a3.19,3.19,0,0,1-.3-.58,46.36,46.36,0,0,1-1.3-7.5.71.71,0,0,0,0-.14v0a.38.38,0,0,0,0-.1.2.2,0,0,0,0-.07s0,0,0-.08,0-.06,0-.08,0,0,0-.08,0-.06,0-.09a.64.64,0,0,1,0-.07s0-.06,0-.09a.14.14,0,0,1,0-.06l0-.09,0-.06a.36.36,0,0,0,0-.09s0,0,0,0a.22.22,0,0,0,0-.08s0,0,0-.05L58,74.56l0,0-.06-.06,0,0-.08-.05h0a.31.31,0,0,0-.1-.05h0a.77.77,0,0,0-.42,0h0l-.2.08c-.72.37-.48,5-.16,7.94v.45a1.8,1.8,0,0,1,0,.22s0,.07,0,.11h0s0,0,0,.06l0,.1h0l0,0h0c-.42-.77-1-1.65-1.45-2.41-.28-.54-.54-1.08-.81-1.6s-.52-1-.78-1.64-.63-1.47-1-2.19a8.93,8.93,0,0,0-1.17-2c-.33-.4-.82-.77-1.34-.43l-.14.12,0,0-.09.11,0,0-.08.13h0a3.1,3.1,0,0,0,.07,2.08,16.08,16.08,0,0,0,1.3,3.05s.05.11.08.16c.16.4.34.8.52,1.2s.28.71.43,1c.35.82.74,1.61,1.13,2.41s.79,1.64,1.13,2.49c.12.28.22.56.34.83l0,.11h0l0,.13a.28.28,0,0,1,0,.11,2.53,2.53,0,0,1-.29-.14,5.23,5.23,0,0,1-.56-.4c-.15-.16-.28-.32-.41-.47-.95-1.06-1.92-2.1-2.77-3.25s-1.47-2.41-2.3-3.55c-.38-.52-1.14-1.72-1.91-1.6a1,1,0,0,0-.21.07h0a.62.62,0,0,0-.16.1v0c-.82.79,1.15,3.62,1.49,4.18a37,37,0,0,0,3.14,4.34A14.87,14.87,0,0,0,52.8,87.26Z"/><path class="cls-39" d="M83.37,83.37Z"/><path class="cls-39" d="M93.81,77.81h0a.64.64,0,0,0-.19-.33l0,0a.61.61,0,0,0-.16-.09h0a.51.51,0,0,0-.22,0c-.77-.09-1.47,1.14-1.82,1.68-.77,1.18-1.35,2.48-2.13,3.66S87.52,84.92,86.63,86l-.38.49c-.18.15-.36.3-.55.43s-.19.1-.28.15V87l0-.13h0l0-.11c.1-.28.19-.57.29-.85.31-.86.64-1.71,1-2.54s.71-1.63,1-2.46c.13-.35.25-.71.37-1.07s.32-.81.46-1.23a.77.77,0,0,0,.07-.16,15.73,15.73,0,0,0,1.16-3.11,3.09,3.09,0,0,0,0-2.08h0a.38.38,0,0,0-.09-.13v0a.47.47,0,0,0-.1-.1l0,0a1,1,0,0,0-.15-.11c-.53-.32-1,.08-1.32.49a10.12,10.12,0,0,0-1.07,2c-.32.74-.61,1.49-.88,2.24s-.42,1-.7,1.67-.47,1.09-.73,1.64c-.43.79-.95,1.7-1.34,2.48h0l0,0h0a1,1,0,0,0,0-.1s0,0,0-.06h0a.36.36,0,0,0,0-.11l0-.22c0-.14,0-.3,0-.45.18-2.92.19-7.58-.54-7.92a1,1,0,0,0-.21-.07h0a.67.67,0,0,0-.42,0h0l-.09,0h0l-.07.06,0,0-.06.07,0,0a.56.56,0,0,1,0,.08s0,0,0,0a.56.56,0,0,0,0,.08.08.08,0,0,1,0,0l0,.09a.14.14,0,0,0,0,.06l0,.09a.14.14,0,0,1,0,.07.29.29,0,0,1,0,.09s0,0,0,.07,0,.06,0,.09a.22.22,0,0,1,0,.08s0,0,0,.08a.19.19,0,0,1,0,.08v.08a.28.28,0,0,0,0,.09v.19a47.6,47.6,0,0,1-.93,7.56,4.47,4.47,0,0,1-.27.59,2.11,2.11,0,0,1-.39.49,1.3,1.3,0,0,1-.15.1h0l0-.07a1.4,1.4,0,0,1-.1-.16c0-.18-.07-.35-.1-.52a7.67,7.67,0,0,0-.61-2.25,3.22,3.22,0,0,0-.39-.57l-.06-.06-.06-.07L78.17,81l0,0-.15-.1,0,0a.34.34,0,0,0-.12-.06l0,0-.17,0c-.4-.06-.55.3-.58.63a9.08,9.08,0,0,0,.43,2.83c.4,1.63.36,3.32.6,5a1.52,1.52,0,0,0,0,.21v.07s0,.09,0,.14l0,.09s0,.09,0,.13l0,.1,0,.12,0,.1,0,.13a.36.36,0,0,1,0,.1s0,.08,0,.12,0,.07,0,.11l0,.12.06.22,0,.1s0,.09,0,.13l0,.09,0,.13a.36.36,0,0,1,0,.09.69.69,0,0,0,0,.13l0,.08.06.13,0,.08.06.13,0,.06a.61.61,0,0,0,.07.14l0,0a5.16,5.16,0,0,0,.29.46v0l.1.12,0,0,.09.11,0,0,.1.1,0,0,.1.08,0,0,.11.09h0a1.62,1.62,0,0,0,.59.25h0l.13,0h.45l.14,0h.06l.16-.05h0a3.66,3.66,0,0,0,1-.52,35.15,35.15,0,0,0,9.82-11.32C92.6,81.22,94.07,78.86,93.81,77.81Z"/></g><path class="cls-40" d="M55.93,84.53Z"/><path class="cls-35" d="M62.18,82.21c0-.33-.21-.69-.61-.61s-.92.7-1.13,1.15a7.88,7.88,0,0,0-.5,2.27c0,.17,0,.34-.07.52l-.09.17-.05.07h0l-.15-.09a2.08,2.08,0,0,1-.42-.47,4.56,4.56,0,0,1-.3-.58,47.45,47.45,0,0,1-1.29-7.5c-.06-.74-.31-2.09-1.37-1.54-.71.37-.47,5-.15,7.94,0,.15,0,.3,0,.45a1.48,1.48,0,0,1,0,.21s0,.08,0,.12h0s0,0,0,.06a1,1,0,0,0,0,.1h0v0h0c-.42-.76-1-1.64-1.46-2.4-.28-.54-.54-1.08-.8-1.61s-.52-1-.78-1.63-.64-1.48-1-2.2a9.1,9.1,0,0,0-1.17-1.94c-.34-.4-.83-.78-1.34-.43-.79.54-.51,1.74-.29,2.5a15.46,15.46,0,0,0,1.3,3s0,.11.08.16c.16.4.33.8.52,1.2s.27.7.42,1c.35.82.74,1.61,1.14,2.4s.78,1.65,1.13,2.5c.11.27.21.56.33.83a2.17,2.17,0,0,1,.07.24.59.59,0,0,0,0,.11,1.55,1.55,0,0,1-.29-.14,5.81,5.81,0,0,1-.57-.4l-.4-.47c-.95-1.06-1.92-2.11-2.77-3.25s-1.48-2.41-2.31-3.56c-.37-.51-1.13-1.71-1.9-1.59-1.73.28.7,3.76,1.08,4.38A34.89,34.89,0,0,0,57.26,94.15c3,2,4.06-1.78,4.27-4.1.16-1.66,0-3.35.36-5A8.81,8.81,0,0,0,62.18,82.21Z"/><path class="cls-33" d="M58.82,94.85a3.09,3.09,0,0,1-1.65-.57A35.08,35.08,0,0,1,46.77,83.4a2.06,2.06,0,0,0-.15-.24c-.88-1.38-1.86-3.07-1.48-3.91a.8.8,0,0,1,.66-.46c.79-.12,1.5.89,1.93,1.5l.12.16c.4.56.77,1.15,1.12,1.73s.75,1.24,1.18,1.82c.69.93,1.48,1.81,2.25,2.67l.51.57.24.28.17.19a6.3,6.3,0,0,0,.53.37h0v0c-.07-.15-.13-.31-.19-.48s-.09-.23-.14-.35c-.35-.84-.73-1.67-1.13-2.48s-.79-1.6-1.14-2.41c-.12-.28-.23-.57-.34-.85l-.08-.21c-.18-.39-.36-.8-.52-1.2l0-.06,0-.08a15.83,15.83,0,0,1-1.32-3.08c-.17-.61-.58-2,.35-2.66.34-.23.88-.34,1.54.45a8.68,8.68,0,0,1,1.19,2c.37.74.7,1.5,1,2.2s.47,1,.77,1.62l.32.63.48,1,.2.31c.37.59.78,1.24,1.12,1.83h0a1.48,1.48,0,0,0,0-.21.81.81,0,0,0,0-.22,1.77,1.77,0,0,1,0-.23c0-.28-.81-7.52.23-8.06a.9.9,0,0,1,.89-.06c.48.27.65,1.08.7,1.72A46.12,46.12,0,0,0,59,84.6a3.72,3.72,0,0,0,.28.53,1.72,1.72,0,0,0,.38.44h0l0-.09c0-.12,0-.24,0-.36l0-.3a7,7,0,0,1,.5-2.15c.11-.25.55-1.08,1.23-1.22a.58.58,0,0,1,.47.08.92.92,0,0,1,.32.65,7.76,7.76,0,0,1-.23,2.57l-.06.32a18.62,18.62,0,0,0-.26,3.07c0,.62,0,1.27-.1,1.91-.08.89-.47,3.84-2.06,4.61A1.84,1.84,0,0,1,58.82,94.85ZM45.93,79.08h-.09a.52.52,0,0,0-.43.29c-.35.79,1,2.92,1.47,3.62l.15.24A34.46,34.46,0,0,0,57.34,94a2.16,2.16,0,0,0,2.15.38c1.15-.56,1.73-2.62,1.89-4.36.06-.63.08-1.28.1-1.9A19.32,19.32,0,0,1,61.74,85l.07-.32A7.72,7.72,0,0,0,62,82.23h0a.65.65,0,0,0-.2-.44.29.29,0,0,0-.23,0c-.43.09-.81.61-1,1.06a7.18,7.18,0,0,0-.47,2.06l0,.29c0,.13,0,.27,0,.4v0a1.62,1.62,0,0,0-.1.18l-.06.08-.09.12-.12-.09-.06,0-.1-.06A2.08,2.08,0,0,1,59,85.3a3.45,3.45,0,0,1-.31-.61,45.1,45.1,0,0,1-1.31-7.54c-.06-.78-.27-1.32-.55-1.47a.63.63,0,0,0-.6,0c-.48.26-.51,3.75-.07,7.79v.23a1.93,1.93,0,0,1,0,.24,1.69,1.69,0,0,1,0,.23.25.25,0,0,0,0,.08h0l.26-.07-.45.45h0l-.5.13.29-.29c-.36-.63-.81-1.36-1.21-2l-.21-.32-.49-1-.32-.63c-.3-.6-.52-1-.78-1.64s-.62-1.45-1-2.19a9.3,9.3,0,0,0-1.15-1.92c-.41-.49-.8-.62-1.14-.39-.67.45-.47,1.48-.23,2.33a15.75,15.75,0,0,0,1.29,3l0,.09,0,.07c.16.41.34.81.53,1.2l.08.22c.11.28.22.56.34.84.34.8.72,1.56,1.13,2.4s.79,1.65,1.14,2.5c.05.12.09.24.14.35s.12.33.19.48.06.18.08.27a.78.78,0,0,0,0,.13l0,.25-.3-.13c-.08,0-.16-.07-.24-.12a6.25,6.25,0,0,1-.58-.41l-.19-.22-.24-.27-.51-.57c-.77-.86-1.56-1.75-2.26-2.7-.44-.59-.83-1.22-1.2-1.83S48,81.17,47.6,80.62l-.11-.16C47.14,80,46.51,79.08,45.93,79.08Z"/><g class="cls-38"><path class="cls-35" d="M46.13,79.75A10.2,10.2,0,0,1,46.88,81c.41.64.87,1.23,1.33,1.83s1,1.26,1.47,1.87,1,1.19,1.6,1.76,1,1,1.45,1.43a3.48,3.48,0,0,0,1.46,1,1.85,1.85,0,0,0-.18-.77l0,.13a.59.59,0,0,0,0,.11,1.55,1.55,0,0,1-.29-.14,5.81,5.81,0,0,1-.57-.4l-.4-.47c-.95-1.06-1.92-2.11-2.77-3.25s-1.48-2.41-2.31-3.56c-.37-.51-1.13-1.71-1.9-1.59a.64.64,0,0,0-.59.54A.75.75,0,0,1,46.13,79.75Z"/><path class="cls-35" d="M49.42,75a2.39,2.39,0,0,1,.82,1c.44.79.69,1.66,1.06,2.47A36.86,36.86,0,0,0,53.73,83c.34.54.64,1.11,1,1.64a3.19,3.19,0,0,0,1.22,1.2,2.43,2.43,0,0,0,0-1.31h0c-.42-.76-1-1.64-1.46-2.4-.28-.54-.54-1.08-.8-1.61s-.52-1-.78-1.63-.64-1.48-1-2.2a9.1,9.1,0,0,0-1.17-1.94c-.34-.4-.83-.78-1.34-.43a1.13,1.13,0,0,0-.43.57A.75.75,0,0,1,49.42,75Z"/><path class="cls-35" d="M56.58,75.73a4.08,4.08,0,0,1,.32,1.42c.12,1.11.08,2.23.15,3.35,0,.24.05.46.08.71,0,.41.08.81.14,1.21a8.68,8.68,0,0,0,.65,2.46,4.59,4.59,0,0,0,.68,1c.14.16.48.56.73.43s.26-.39.3-.6l-.05,0a2.08,2.08,0,0,1-.42-.47,4.56,4.56,0,0,1-.3-.58,47.45,47.45,0,0,1-1.29-7.5c-.06-.69-.28-1.91-1.16-1.62A.74.74,0,0,1,56.58,75.73Z"/><path class="cls-35" d="M62.18,82.21c0-.33-.21-.69-.61-.61a1.6,1.6,0,0,0-.91.76.93.93,0,0,1,.42.54A3.84,3.84,0,0,1,61.23,84q0,.69,0,1.38c0,.93-.06,1.85-.1,2.77s0,1.83-.07,2.73a5.11,5.11,0,0,1-.52,2.24,2.87,2.87,0,0,1-1.52,1.37,2.64,2.64,0,0,1-.78.16c2.25.61,3.08-2.53,3.26-4.57.16-1.66,0-3.35.36-5A8.81,8.81,0,0,0,62.18,82.21Z"/></g><path class="cls-40" d="M82.5,84.55Z"/><path class="cls-35" d="M76.57,85.36a49,49,0,0,1,.6,5c.33,2.31,1.55,6,4.47,3.89a34.91,34.91,0,0,0,9.82-11.32c.35-.64,2.61-4.23.87-4.43-.78-.08-1.48,1.15-1.83,1.69-.77,1.18-1.34,2.48-2.13,3.66s-1.71,2.27-2.6,3.38l-.39.49a5.66,5.66,0,0,1-.54.43,2.64,2.64,0,0,1-.29.15.59.59,0,0,0,0-.11,2,2,0,0,1,0-.24c.11-.28.2-.57.3-.85.3-.86.64-1.71,1-2.55s.7-1.62,1-2.45c.13-.35.25-.72.37-1.07s.33-.82.47-1.23a1.11,1.11,0,0,1,.07-.16A15.7,15.7,0,0,0,89,76.51c.18-.76.41-2-.41-2.48-.53-.32-1,.08-1.32.49a9,9,0,0,0-1.07,2c-.32.74-.61,1.49-.89,2.24s-.42,1-.7,1.67-.47,1.09-.72,1.64c-.44.79-.95,1.7-1.34,2.48h-.05v0h0v0a.36.36,0,0,1,0-.09s0,0,0-.06h0a.5.5,0,0,1,0-.12,1.52,1.52,0,0,1,0-.21c0-.15,0-.3,0-.45.17-2.92.18-7.58-.55-7.92-1.08-.5-1.26.87-1.29,1.6a45.15,45.15,0,0,1-.93,7.55,3.24,3.24,0,0,1-.27.6,2.22,2.22,0,0,1-.38.49l-.15.1h0l-.05-.07-.1-.16-.09-.52A7.31,7.31,0,0,0,77.9,83a1.91,1.91,0,0,0-1.18-1.08c-.4-.06-.55.3-.58.63A9,9,0,0,0,76.57,85.36Z"/><path class="cls-33" d="M80,95a1.74,1.74,0,0,1-.71-.15c-1.63-.69-2.16-3.62-2.29-4.5-.09-.63-.14-1.28-.19-1.91a19.75,19.75,0,0,0-.4-3l-.08-.32A8,8,0,0,1,76,82.53a.94.94,0,0,1,.3-.66.54.54,0,0,1,.45-.11c.7.11,1.17.92,1.3,1.16a7.29,7.29,0,0,1,.6,2.13l0,.28.06.37a.41.41,0,0,1,0,.09h0a1.78,1.78,0,0,0,.35-.46,2.77,2.77,0,0,0,.26-.57,46,46,0,0,0,.92-7.5c0-.64.15-1.45.62-1.75a.93.93,0,0,1,.89,0c.25.12.59.57.7,3.13,0,1.4,0,3.25-.07,4.94,0,.06,0,.13,0,.21a1.7,1.7,0,0,0,0,.22,1.62,1.62,0,0,0,0,.2h0c.31-.61.68-1.28,1-1.87l.2-.35c.14-.32.29-.65.43-1l.29-.65c.27-.62.47-1.06.69-1.66s.55-1.48.89-2.25a9.84,9.84,0,0,1,1.09-2c.63-.82,1.17-.74,1.52-.53,1,.59.62,2,.48,2.64A16,16,0,0,1,88,79.68a.36.36,0,0,0,0,.09l0,.07c-.14.4-.3.82-.47,1.22l-.06.2c-.1.29-.2.58-.31.87-.3.82-.65,1.64-1,2.46s-.7,1.69-1,2.54l-.12.35c-.06.17-.11.34-.17.5v0h0a4.73,4.73,0,0,0,.53-.41l.16-.2a3.17,3.17,0,0,1,.21-.27l.48-.59c.72-.9,1.47-1.82,2.12-2.79.4-.6.75-1.24,1.09-1.87s.66-1.21,1-1.79l.1-.16c.4-.63,1.07-1.67,1.86-1.59a.8.8,0,0,1,.68.43c.42.82-.47,2.56-1.29,4l-.14.24a34.85,34.85,0,0,1-9.86,11.37A3,3,0,0,1,80,95Zm-3.3-9.68a19.37,19.37,0,0,1,.41,3.1c.05.62.1,1.26.19,1.89.24,1.73.92,3.76,2.1,4.27a2.18,2.18,0,0,0,2.13-.48,34.63,34.63,0,0,0,9.78-11.28l.14-.24c.41-.72,1.68-2.92,1.29-3.69a.53.53,0,0,0-.45-.27c-.61-.07-1.24.92-1.57,1.45l-.11.17c-.37.57-.7,1.18-1,1.77s-.69,1.28-1.1,1.89c-.66,1-1.41,1.91-2.14,2.8l-.47.6-.21.26-.18.22a4.3,4.3,0,0,1-.58.46,1.71,1.71,0,0,1-.23.13l-.29.15v-.38l.06-.26c.06-.17.12-.34.17-.5s.08-.24.13-.36c.3-.86.64-1.72,1-2.56s.71-1.63,1-2.44c.11-.29.2-.58.3-.86l.07-.21c.17-.41.33-.82.47-1.23l0-.07a1,1,0,0,1,0-.1,16.14,16.14,0,0,0,1.15-3.08c.2-.86.34-1.9-.35-2.32-.35-.21-.73-.06-1.12.45a9.43,9.43,0,0,0-1.06,2c-.33.77-.63,1.56-.88,2.23s-.42,1.06-.69,1.66c-.1.24-.2.45-.29.67l-.44,1-.2.36c-.38.67-.8,1.43-1.12,2.09l.14.21h0l0,0-.32-.1h0l0-.06-.32-.21h0l-.06,0h.22l0-.14,0-.23a1.69,1.69,0,0,1,0-.23,1.55,1.55,0,0,1,0-.22c.24-4.08,0-7.56-.46-7.79a.59.59,0,0,0-.6,0c-.27.17-.45.72-.48,1.5a46.19,46.19,0,0,1-.93,7.57,2.76,2.76,0,0,1-.29.64A2,2,0,0,1,79,86a.31.31,0,0,1-.09.07l0,0-.12.11-.1-.12L78.59,86l-.1-.17,0-.06c0-.13,0-.26-.07-.39l0-.29a6.72,6.72,0,0,0-.57-2c-.23-.44-.63-.94-1.07-1a.29.29,0,0,0-.23,0,.71.71,0,0,0-.18.46A7.53,7.53,0,0,0,76.64,85Z"/><g class="cls-38"><path class="cls-35" d="M92.06,79.3a9.75,9.75,0,0,0-.69,1.32c-.38.66-.81,1.27-1.24,1.89s-.89,1.31-1.38,1.94-1,1.25-1.51,1.84-.91,1-1.38,1.49a3.42,3.42,0,0,1-1.41,1,2.06,2.06,0,0,1,.14-.77l0,.13a.59.59,0,0,1,0,.11,2.64,2.64,0,0,0,.29-.15,5.66,5.66,0,0,0,.54-.43l.39-.49c.89-1.11,1.81-2.2,2.6-3.38s1.36-2.48,2.13-3.66c.35-.54,1-1.77,1.83-1.69A.65.65,0,0,1,93,79,.77.77,0,0,0,92.06,79.3Z"/><path class="cls-35" d="M88.54,74.68a2.37,2.37,0,0,0-.77,1c-.4.81-.61,1.69-.94,2.52a38.22,38.22,0,0,1-2.2,4.72c-.32.56-.59,1.14-.92,1.69a3,3,0,0,1-1.16,1.25,2.52,2.52,0,0,1,0-1.31h0c.39-.78.9-1.69,1.34-2.48.25-.55.49-1.1.72-1.64s.47-1.05.7-1.67.57-1.5.89-2.24a9,9,0,0,1,1.07-2c.32-.41.79-.81,1.32-.49a1.16,1.16,0,0,1,.46.55A.7.7,0,0,0,88.54,74.68Z"/><path class="cls-35" d="M81.43,75.8a4.07,4.07,0,0,0-.26,1.43c-.06,1.12,0,2.24,0,3.35,0,.24,0,.46,0,.72,0,.41-.05.81-.09,1.22A8.72,8.72,0,0,1,80.53,85a4.25,4.25,0,0,1-.63,1c-.13.17-.45.59-.71.47s-.28-.38-.33-.58l.06,0a2.22,2.22,0,0,0,.38-.49,3.24,3.24,0,0,0,.27-.6,45.15,45.15,0,0,0,.93-7.55c0-.68.19-1.91,1.09-1.67A.52.52,0,0,0,81.43,75.8Z"/><path class="cls-35" d="M76.14,82.54c0-.33.18-.69.58-.63a1.6,1.6,0,0,1,1,.7,1,1,0,0,0-.4.56,4,4,0,0,0-.09,1.09c0,.46,0,.92,0,1.38,0,.92.14,1.84.23,2.76s.13,1.82.21,2.72a5,5,0,0,0,.62,2.21,2.88,2.88,0,0,0,1.59,1.3,2.59,2.59,0,0,0,.78.12c-2.22.72-3.19-2.38-3.48-4.41a49,49,0,0,0-.6-5A9,9,0,0,1,76.14,82.54Z"/></g><path class="cls-41" d="M65.41,82.31S55.06,68,23.52,68.05l1.06,5.62,39.77,10Z"/><path class="cls-42" d="M61.21,78.82C45.32,70,25.53,70.37,24,70.36l.62,3.31,39.77,10,1.06-1.38s-.21-.29-.66-.79A18.31,18.31,0,0,0,61.21,78.82Z"/><path class="cls-41" d="M108.13,66.94c-2.55.5-5.17.08-7.74.07a49.6,49.6,0,0,0-20.75,4.14,40.45,40.45,0,0,0-11.09,7.2,34.66,34.66,0,0,0-2.74,2.94,13.37,13.37,0,0,0-.89,1.1l2,5.13,43-8,2-14.26A8.72,8.72,0,0,1,108.13,66.94Z"/><path class="cls-43" d="M75,73.65c1.73-.85,3.48-1.67,5.29-2.35a52.37,52.37,0,0,1,5.59-1.74,64.45,64.45,0,0,1,11.56-1.84c1.86-.13,3.73-.2,5.6-.18,1.12,0,2.25,0,3.36,0,2-.12,4.36-.52,5.53-2.22a8.68,8.68,0,0,1-3.79,1.65c-2.55.5-5.17.08-7.74.07a49.6,49.6,0,0,0-20.75,4.14,48.45,48.45,0,0,0-5.51,2.93Z"/><path class="cls-42" d="M103.25,69.16c-1.9.07-3.8.27-5.69.43s-4,.39-5.93.7a61.75,61.75,0,0,0-11.17,3c-1.83.66-3.63,1.42-5.4,2.25a23.63,23.63,0,0,0-2.49,1.31,10.68,10.68,0,0,1-2.25,1.23.07.07,0,0,1-.08-.08,5.55,5.55,0,0,1,.82-1.76,31.86,31.86,0,0,0-2.51,2.14,34.66,34.66,0,0,0-2.74,2.94,13.37,13.37,0,0,0-.89,1.1l2,5.13,43-8s1-7.2,1.63-11.37C109,69.53,106,69.07,103.25,69.16Z"/><path class="cls-41" d="M111.3,77.57c0-1.5.06-3,.16-4.49.07-1.14.13-2.28.3-3.4-31.31-.54-46.84,12.71-46.84,12.71l2,5.13,44.83-3.86A40.12,40.12,0,0,1,111.3,77.57Z"/><path class="cls-42" d="M111.3,77.57c0-1.5.06-3,.16-4.49,0-.42.05-.84.08-1.27h0l-3-.23a69.47,69.47,0,0,0-12,.19,92.42,92.42,0,0,0-11.65,2.12,67.49,67.49,0,0,0-11.08,3.57c-1.76.77-3.51,1.61-5.23,2.48q-.56.28-1.08.6l-.86.57-.37.28c-.45.34-.88.7-1.34,1l1.95,5.1,44.83-3.86A40.12,40.12,0,0,1,111.3,77.57Z"/><path class="cls-41" d="M64.25,83.27a8.44,8.44,0,0,1,3.79.28,6.69,6.69,0,0,1,3.09,1.79,10.89,10.89,0,0,1,2.11,2.38l40-10.49L112.87,73c-23.63-3.65-47.64,8.77-47.64,8.77-20.69-13.36-43-10.33-43-10.33l-.05,1.29,1.65,2.47,35.13,11.7C59.81,85.12,62.37,83.74,64.25,83.27Z"/><path class="cls-42" d="M112.87,73a58.07,58.07,0,0,0-6.27-.61c2.87.42,5.23,1.11,2.66,1.33a71.66,71.66,0,0,0-7.9,1.23,15.16,15.16,0,0,1,3.63.26c-9.78-.13-24.32,4.27-25.26,4.25s-.23-.62-.23-.62C82.17,76.63,95,74.64,95,74.64c-9.43.61-20.7,4.77-20.7,4.77,2.78-1.89,10.21-3.94,10.21-3.94-5.7,1.41-14,4.82-14.72,5s-.4-.22-.4-.22a20.21,20.21,0,0,1,4.52-2.12,84.25,84.25,0,0,0-8.69,3.68c-1.15-.74-2.32-1.44-3.48-2.09,1,1.11.56,1.59.56,1.59-5.16-3.7-9.09-3.63-9.09-3.63a18.79,18.79,0,0,1,7.48,4.11c-6.79-4.58-27.08-7.23-28.6-7.58s-.36-.5-.36-.5C34.45,73,43.42,74,43.42,74,36.08,72,27.08,72.1,26,71.83c-.65-.17.32-.47,1.11-.67a45.1,45.1,0,0,0-5,.29l-.05,1.29,1.65,2.47,35.13,11.7c.89-1.79,3.45-3.17,5.33-3.64a8.44,8.44,0,0,1,3.79.28,6.69,6.69,0,0,1,3.09,1.79,10.89,10.89,0,0,1,2.11,2.38l40-10.49Z"/><g class="cls-38"><path class="cls-44" d="M26.4,71.49h1.72c.54,0,1.2,0,2,.05l1.21,0,1.34.09,1.45.11.76.07.79.08c1.07.11,2.19.24,3.35.41s2.35.35,3.55.58l.91.17.91.19c.61.12,1.21.27,1.82.4l1.82.46,1.78.5c1.18.35,2.33.73,3.42,1.13.55.21,1.1.4,1.61.62s1,.42,1.52.65c1,.44,1.89.89,2.72,1.33l1.17.65,1,.63.47.3.42.29.74.51c.44.32.77.59,1,.77l.35.27-.37-.25-1-.73-.76-.49-.43-.27c-.15-.1-.31-.18-.47-.28l-1.05-.6-1.18-.62c-.83-.42-1.74-.85-2.73-1.26-.48-.22-1-.41-1.52-.62s-1.06-.39-1.6-.59l-.42-.15-.42-.14-.84-.28-.87-.26L49.67,75l-1.78-.49c-.6-.15-1.2-.31-1.8-.45s-1.21-.29-1.82-.41l-.9-.19-.9-.17c-1.2-.24-2.39-.43-3.54-.62s-2.27-.33-3.33-.45l-.78-.1L34.06,72l-1.45-.15-2.54-.2c-.75-.06-1.41-.1-2-.12l-1.26-.06Z"/><path class="cls-44" d="M25.15,72.56l.46,0,1.28,0h2c.77,0,1.64,0,2.59.08s2,.11,3.05.2,2.23.19,3.41.33,2.39.3,3.62.51l.93.15.93.17c.62.11,1.24.24,1.86.37.31.06.62.14.93.21l.92.21,1.82.47c.6.18,1.2.34,1.78.52l.87.28c.29.09.58.18.85.28,1.13.39,2.2.8,3.2,1.23l.74.33.36.16.35.16c.46.23.91.44,1.33.66l1.2.65c.37.21.72.43,1,.63l.48.3.43.29.76.51c.23.16.42.32.59.45l.43.33.36.28L63.36,82l-1-.74c-.24-.14-.49-.31-.78-.49l-.43-.27-.49-.28c-.33-.19-.69-.4-1.07-.6L58.34,79c-.43-.21-.88-.41-1.34-.62l-.35-.16-.36-.15-.74-.31c-1-.41-2.08-.8-3.2-1.17l-.85-.28-.87-.26c-.28-.1-.58-.17-.88-.26l-.89-.25-1.81-.46-.92-.21-.93-.2c-.61-.13-1.23-.26-1.85-.37l-.92-.18L41.51,74c-.62-.11-1.22-.2-1.83-.29l-1.78-.25c-1.17-.14-2.31-.28-3.39-.39s-2.1-.18-3-.25-1.81-.12-2.58-.15-1.44-.06-2-.07l-1.28,0Z"/><path class="cls-44" d="M40,75h1l.54,0c.2,0,.42,0,.65,0l.73,0,.81.09.87.11.94.14,1,.17.51.1.52.11,1,.23,1.07.27c.73.18,1.45.41,2.17.62l.54.17.54.19,1.06.37c.35.12.69.26,1,.4l1,.4c.33.13.65.28,1,.42l.9.42c.6.26,1.13.56,1.64.83l.71.38.34.18.3.18,1,.61.66.4.23.14L62.58,82l-.68-.36-1-.55-.32-.17-.34-.16-.73-.35c-.51-.24-1.05-.51-1.65-.76l-.91-.39c-.32-.13-.63-.28-1-.4l-1-.38-.51-.2L53.91,78l-1.06-.36-.53-.18-.54-.17c-.72-.21-1.43-.45-2.15-.63l-1.06-.28-1-.25L47,76.05l-.51-.1-1-.2-.93-.17-.86-.14-.8-.12-.73-.1-.64-.07L41,75.09,40.28,75Z"/><path class="cls-44" d="M40.52,76.68h.25l.71,0c.31,0,.69,0,1.12,0l1.44.06c.53,0,1.1.08,1.7.15s1.24.14,1.89.24l1,.16c.34.06.68.12,1,.2l1,.22.52.12.51.13c.68.18,1.36.38,2,.59l1,.34.95.35.9.37.85.39q.83.39,1.53.78c.47.24.87.51,1.24.73l.93.61.58.42.2.15-.21-.13-.61-.38c-.26-.16-.59-.34-1-.55l-.6-.32a3.41,3.41,0,0,0-.33-.17l-.34-.18c-.47-.23-1-.47-1.54-.71l-.86-.36-.9-.35-.94-.33L54.11,79l-.49-.16q-1-.31-2-.57l-.51-.14L50.59,78l-1-.23-1-.2c-.33-.06-.66-.13-1-.18-.64-.11-1.27-.21-1.87-.29L44,76.92l-1.43-.13-1.11-.07-.71,0Z"/><path class="cls-44" d="M43.47,78.46l.78,0c.51,0,1.22,0,2.08.07.43,0,.89.06,1.38.11s1,.12,1.54.2,1.08.17,1.64.28l.83.17.84.2c.56.14,1.11.29,1.65.46l.8.25.78.27.74.29.7.29c.45.2.87.39,1.26.59s.73.38,1,.55l.78.46.66.44-.7-.37-.8-.41-.5-.23-.56-.25c-.39-.17-.82-.35-1.28-.53l-.7-.26-.74-.26-.77-.25-.8-.24c-.54-.16-1.09-.31-1.64-.44l-.83-.2c-.27-.07-.55-.13-.82-.18L50,79.28l-.8-.14c-.53-.09-1-.18-1.52-.24l-1.37-.18C44.61,78.52,43.47,78.46,43.47,78.46Z"/><path class="cls-44" d="M103.79,73.1l-.43,0-1.22.08-1.88.15-2.43.25-1.39.16L95,74l-1.56.23-1.63.25-1.68.29c-.57.11-1.15.2-1.72.32s-1.16.22-1.74.35l-.88.18-.87.2c-1.17.26-2.33.55-3.46.85l-1.69.46-1.64.48-1.57.49-1.5.51c-1,.34-1.88.66-2.71,1l-.62.23L71.1,80,70,80.48l-1.72.76L66.82,82l1.45-.77c.47-.24,1-.51,1.7-.83s1.41-.65,2.25-1,1.74-.69,2.7-1.06l1.5-.53L78,77.25l1.64-.5,1.68-.47c1.14-.31,2.31-.6,3.48-.87l.87-.19.88-.19,1.75-.34L90,74.38l1.69-.27c1.11-.16,2.19-.3,3.21-.42l1.49-.16c.48,0,1-.1,1.4-.13.89-.09,1.71-.14,2.44-.18l1.89-.09,1.22,0Z"/><path class="cls-44" d="M106.46,73.84l-.45,0-1.26.06-2,.12-2.54.22c-.92.08-1.93.19-3,.31S95.1,74.85,94,75l-1.75.27-1.79.3-.91.15-.91.17-1.82.36c-.61.12-1.21.26-1.82.39s-1.2.28-1.79.42-1.18.29-1.76.44L79.69,78,78,78.44l-1.57.47c-1,.33-2,.64-2.85,1L73,80.1l-.61.23-1.13.42-1.82.73-1.57.68,1.54-.74,1.8-.8,1.12-.46.6-.24.64-.24c.87-.34,1.83-.67,2.84-1L78,78.15l1.65-.5,1.71-.48,1.76-.45,1.8-.42,1.83-.39q.92-.19,1.83-.36l.91-.17.91-.15c1.2-.21,2.4-.38,3.55-.54s2.28-.28,3.34-.38,2.08-.19,3-.26c1.86-.13,3.41-.18,4.5-.2.54,0,1,0,1.26,0Z"/><path class="cls-44" d="M105,74.78l-.42,0-1.16.07-1.81.16c-.7.06-1.49.15-2.35.24l-2.76.34c-1,.13-2,.3-3.07.46s-2.17.37-3.28.58-2.24.44-3.36.68l-1.68.38-1.66.4-1.63.43L80.21,79l-1.52.45-1.45.45-1.37.45c-.44.14-.86.3-1.27.44L74,81l-.56.22-1,.38-1.69.67-1.46.61,1.43-.67,1.67-.73,1-.43.56-.23.6-.22c.4-.15.82-.32,1.26-.47l1.36-.49,1.45-.48,1.52-.47,1.58-.45,1.63-.44L85,77.37,86.68,77c1.13-.24,2.26-.47,3.38-.67s2.22-.38,3.29-.55c2.14-.31,4.14-.53,5.86-.69s3.17-.22,4.17-.26c.51,0,.9,0,1.17,0Z"/><path class="cls-44" d="M96.91,76.66l-1.17.23-1.35.27-1.74.35L90.59,78l-2.29.5-1.21.27L85.85,79c-.84.18-1.68.4-2.52.6l-2.52.62-2.42.65-2.26.64-2,.62-1.69.56c-.5.15-.93.33-1.29.46l-.83.3-.29.11.28-.13.82-.35c.35-.14.77-.34,1.27-.52s1-.41,1.66-.63l2-.68c.71-.23,1.47-.45,2.25-.69l2.42-.68,2.52-.64c.85-.19,1.69-.4,2.53-.58s1.66-.37,2.46-.53,1.57-.31,2.31-.45l2.07-.37c1.29-.22,2.36-.38,3.11-.49l.88-.12Z"/></g><path class="cls-45" d="M113.77,74.53a1.92,1.92,0,0,0-.24-.57,1.56,1.56,0,0,0-.28-.16L70.67,83s-5.8,7.38-10.36-.66L21.91,72.11a1.07,1.07,0,0,0-.34.43v0l14,44.58,35.19,11.44s2.29,2.5,6.34.71l38.42-10.82Z"/><path class="cls-46" d="M21.55,72.56l14,45.35,35.19,11.44a4.61,4.61,0,0,0,6.56-.06l38.2-10.06-1.77-44.8L70.65,83.78s-5.79,7.38-10.36-.67Z"/><polygon class="cls-47" points="113.72 74.43 70.83 83.74 70.84 83.81 77.29 129.29 115.49 119.23 113.72 74.43"/><path class="cls-48" d="M70.83,83.74l-.18,0S64.94,91,60.4,83.28l10.33,46.07a4.61,4.61,0,0,0,6.56-.06L70.84,83.81Z"/><path class="cls-49" d="M60.38,84s-.69-1.61,3.12-2.12,6.58.84,7.34,2l.33,1.72-10.06,1Z"/><path class="cls-50" d="M60.36,84.76s-.69-1.6,3.11-2.12,6.59.84,7.35,2l.33,1.72-10.06,1Z"/><path class="cls-51" d="M60.36,85.13s-.7-1.61,3.11-2.12,6.58.84,7.34,2l.33,1.72-10.06,1Z"/><path class="cls-52" d="M67.86,87l3.28-.33L70.81,85a5.84,5.84,0,0,0-3.58-1.87C67.42,84.41,67.64,85.72,67.86,87Z"/><path class="cls-52" d="M62.8,83.12c-3,.6-2.44,2-2.44,2l.72,2.59,2.71-.28C63.45,86,63.15,84.55,62.8,83.12Z"/><path class="cls-53" d="M113.72,74.43,70.65,83.78s-5.79,7.38-10.36-.67L21.55,72.56l14,45.35,35.19,11.44a4.61,4.61,0,0,0,6.56-.06l38.2-10.06ZM40.27,109.21C34,101.11,25,80.21,24.19,77.63S25,75,25,75s29.88,7.48,31.94,8.39,2.33,4.46,2.33,4.46,5,23.36,5.62,29.12S46.54,117.32,40.27,109.21Zm29.56,9.11c-.91.46-1.65-2.41-1.64-2.65s-5.95-26-5.92-27.3,2-.44,2-.44a3.55,3.55,0,0,1,2.13,2.91s4.78,23.76,4.73,25.64S69.83,118.32,69.83,118.32Zm42.22-19.23c-2.91,8.89-22.55,15.16-27,16.52s-4.74-2.73-4.74-2.73S76.5,90,76.41,86.94s4.09-3.48,4.09-3.48l26.8-5.93,3.36-.48c1.54.28,1.33,2.07,1.33,2.07s.69,14.61.81,16.08A12,12,0,0,1,112.05,99.09Z"/><path class="cls-14" d="M69.83,118.32s1.22,0,1.27-1.84-4.73-25.64-4.73-25.64a3.55,3.55,0,0,0-2.13-2.91s-1.93-.86-2,.44,5.92,27.05,5.92,27.3S68.92,118.78,69.83,118.32Z"/><path class="cls-14" d="M80.32,112.88s.3,4.08,4.74,2.73,24.08-7.63,27-16.52a12,12,0,0,0,.75-3.89c-.12-1.47-.81-16.08-.81-16.08s.21-1.79-1.33-2.07l-3.36.48L80.5,83.46s-4.17.46-4.09,3.48S80.32,112.88,80.32,112.88Z"/><path class="cls-14" d="M64.89,116.93c-.59-5.76-5.62-29.12-5.62-29.12s-.27-3.55-2.33-4.46S25,75,25,75s-1.6.08-.81,2.67,9.8,23.48,16.08,31.58S65.48,122.69,64.89,116.93Z"/><path class="cls-53" d="M113.62,75.74s.36,34.24,0,36.68-5.72,3.89-5.72,3.89-26.26,8.26-28.34,8.57-2-3.23-2-3.23-4.18-32.87-4.35-35.57a3.35,3.35,0,0,1,2-3.3l-4.58,1s-4.37,5.56-8.51,1.75c1,1.65,3.93,1.84,5.21,2s1.3,1.75,1.3,1.75,6,32.8,6.19,35.61-1.29,2.66-1.29,2.66c-2.2.61-3.24-2.11-3.24-2.11L62.45,92.54s6.06,31.08,6,32.79-2.34.68-2.34.68-26-8-27.54-8.52a4.85,4.85,0,0,1-2.4-1.9L29.08,97l6.46,21,35.19,11.44a4.61,4.61,0,0,0,6.56-.06l38.2-10.06-1.72-43.54Z"/><path class="cls-53" d="M77.27,129.27a.06.06,0,0,1-.06-.05L70.63,84.11a.08.08,0,0,1,.05-.07s.07,0,.07,0l6.58,45.11s0,.06,0,.07Z"/><path class="cls-53" d="M70.81,129.36a.06.06,0,0,1-.06-.05L60.31,83.08a.07.07,0,0,1,0-.08.08.08,0,0,1,.07,0l10.44,46.24s0,.06-.05.07Z"/><path class="cls-43" d="M57.75,76c-6.38-3.83-17.23-8-34.23-7.93l.08.38C27.19,68.33,44.26,68.31,57.75,76Z"/></g></g></g></svg>